<svg version="1.1" id="Layer_1" xmlns="http://www.w3.org/2000/svg" xmlns:xlink="http://www.w3.org/1999/xlink" x="0px" y="0px"
	 width="100%" viewBox="0 0 1094 375" enable-background="new 0 0 1094 375" xml:space="preserve">
<path fill="#FEFEFE" opacity="1.000000" stroke="none" 
	d="
M712.000000,376.000000 
	C474.666656,376.000000 237.833328,376.000000 1.000000,376.000000 
	C1.000000,251.000000 1.000000,126.000000 1.000000,1.000000 
	C365.666656,1.000000 730.333313,1.000000 1095.000000,1.000000 
	C1095.000000,126.000000 1095.000000,251.000000 1095.000000,376.000000 
	C967.500000,376.000000 840.000000,376.000000 712.000000,376.000000 
M90.188484,176.634308 
	C90.188484,214.574677 90.188484,252.515060 90.188484,290.904449 
	C75.928947,290.904449 62.173733,290.904449 48.350513,290.904449 
	C48.350513,293.234711 48.350513,295.108765 48.350513,296.984314 
	C64.267761,296.984314 79.878212,296.984314 95.757034,296.984314 
	C95.757034,294.884186 95.757042,293.062103 95.757042,291.240051 
	C95.756943,241.247147 95.744751,191.254227 95.803955,141.261398 
	C95.806168,139.394104 95.853889,136.738205 96.992302,135.802353 
	C101.130562,132.400391 105.742249,129.574295 111.072449,125.915245 
	C111.072449,178.559555 111.072449,229.944183 111.072449,281.368561 
	C112.989212,281.368561 114.426323,281.368561 116.451035,281.368561 
	C116.451035,229.788925 116.451035,178.440369 116.451035,126.642448 
	C122.369377,129.306000 125.387177,132.203903 125.336342,139.064331 
	C124.959770,189.887665 125.132271,240.715073 125.132240,291.541199 
	C125.132240,293.320312 125.132240,295.099426 125.132240,296.900665 
	C141.003479,296.900665 156.385864,296.900665 171.990295,296.900665 
	C171.990295,294.716888 171.990280,292.893951 171.990280,291.071014 
	C171.990265,240.244904 171.990295,189.418777 171.990234,138.592667 
	C171.990219,131.141663 173.096878,129.662735 181.026794,127.042519 
	C181.026794,178.580551 181.026794,229.948792 181.026794,281.602356 
	C182.983231,281.503174 184.404907,281.431122 186.364502,281.331818 
	C186.364502,229.693512 186.364502,178.345993 186.364502,126.112762 
	C190.415314,128.882126 193.547852,131.348618 196.981369,133.280121 
	C200.448578,135.230576 201.511856,137.752441 201.500290,141.731262 
	C201.354919,191.723740 201.404709,241.716812 201.404572,291.709717 
	C201.404572,293.460938 201.404572,295.212158 201.404572,296.950989 
	C217.669159,296.950989 233.235001,296.950989 248.873260,296.950989 
	C248.873260,294.867950 248.873260,293.098633 248.873260,290.880890 
	C234.929245,290.880890 221.175858,290.880890 207.390106,290.880890 
	C207.390106,249.984787 207.390106,209.540970 207.390106,168.603027 
	C211.213837,171.230759 214.377274,173.707825 217.826385,175.687103 
	C221.071976,177.549591 222.186142,179.827423 222.162018,183.673965 
	C221.969727,214.335083 222.054672,244.997925 222.054642,275.660248 
	C222.054642,277.454346 222.054657,279.248444 222.054657,281.303406 
	C224.035934,281.303406 225.588394,281.303406 227.310303,281.303406 
	C227.424149,280.391663 227.572845,279.755646 227.573059,279.119568 
	C227.584229,245.457687 227.618561,211.795639 227.474136,178.134384 
	C227.467133,176.503464 226.277008,174.354813 224.953003,173.346313 
	C220.189407,169.717834 215.207748,166.356049 210.152023,163.139404 
	C207.791565,161.637573 206.776932,159.986557 206.869934,157.102859 
	C207.095413,150.111115 207.127914,143.099014 206.816971,136.113861 
	C206.737579,134.330627 205.510284,132.071777 204.084839,130.970932 
	C199.215012,127.210083 193.897278,124.029015 189.029938,120.265274 
	C187.610214,119.167450 186.409836,116.893501 186.334198,115.106773 
	C186.031387,107.953979 186.328369,100.777328 186.118439,93.617867 
	C186.072739,92.058777 185.271225,89.977081 184.097153,89.091339 
	C179.334564,85.498398 174.291092,82.277786 169.195953,78.814285 
	C162.225922,83.566208 155.386246,88.229248 148.542664,92.894951 
	C143.051804,89.141273 137.915451,85.435112 132.560974,82.076683 
	C130.723236,80.924026 127.238449,79.404709 126.386925,80.163513 
	C121.296951,84.699226 112.808121,85.428650 110.954041,93.570534 
	C110.809746,94.204178 110.935860,94.899345 110.935875,95.565918 
	C110.935997,101.565063 110.635521,107.584724 111.042976,113.556068 
	C111.309395,117.460358 109.863754,119.621964 106.682610,121.539619 
	C102.268867,124.200294 98.261093,127.535988 93.839294,130.181122 
	C90.842087,131.974060 89.999008,134.199463 90.117859,137.529572 
	C90.355469,144.186813 90.377960,150.867432 90.063866,157.518311 
	C89.978958,159.316284 88.802635,161.608231 87.380066,162.698425 
	C82.496391,166.441040 77.196266,169.636658 72.251915,173.306244 
	C71.008621,174.228989 69.767441,176.139755 69.762146,177.600952 
	C69.638336,211.761688 69.682602,245.923050 69.724274,280.084259 
	C69.724792,280.511230 70.093315,280.937744 70.397224,281.596893 
	C71.827705,281.510620 73.248558,281.424957 75.012474,281.318573 
	C75.012474,279.198639 75.012482,277.393036 75.012474,275.587402 
	C75.012405,244.758453 74.987579,213.929413 75.075348,183.100723 
	C75.080467,181.301163 75.417419,178.792419 76.593842,177.835190 
	C80.645752,174.538223 85.139046,171.783691 90.188499,168.326630 
	C90.188499,171.450317 90.188499,173.565155 90.188484,176.634308 
M513.267029,116.499878 
	C513.267029,142.268295 513.267029,168.036697 513.267029,193.798325 
	C518.533325,193.798325 523.143494,193.798325 528.312134,193.798325 
	C528.312134,175.378677 528.312134,157.179184 528.312134,138.801346 
	C533.203857,138.801346 537.551270,139.055466 541.852844,138.720322 
	C545.247437,138.455856 546.781921,139.774094 548.211792,142.756378 
	C556.409729,159.855057 564.855225,176.835052 573.141907,193.702988 
	C579.083435,193.702988 584.778809,193.702988 590.905273,193.702988 
	C581.356873,174.730896 572.026978,156.193085 562.575623,137.413910 
	C581.221436,131.892776 588.478210,118.324516 589.588257,100.518532 
	C591.111816,76.076935 576.052124,59.535732 551.633362,58.866310 
	C540.808228,58.569550 529.969482,58.768238 519.136902,58.743645 
	C517.233765,58.739326 515.330566,58.743034 513.267090,58.743034 
	C513.267090,78.179893 513.267090,96.839882 513.267029,116.499878 
M774.470093,118.091721 
	C758.704834,118.091721 742.939575,118.091721 726.657715,118.091721 
	C726.657715,98.018105 726.657715,78.479637 726.657715,58.973419 
	C721.525940,58.973419 716.920288,58.973419 712.231750,58.973419 
	C712.231750,104.062820 712.231750,148.922852 712.231750,193.644684 
	C717.273926,193.644684 721.993713,193.644684 727.075562,193.644684 
	C727.075562,173.181763 727.075562,153.097672 727.075562,133.137421 
	C746.498657,133.137421 765.542480,133.137421 784.978027,133.137421 
	C784.978027,153.575485 784.978027,173.647629 784.978027,193.670837 
	C790.100281,193.670837 794.814209,193.670837 799.495972,193.670837 
	C799.495972,148.576202 799.495972,103.836937 799.495972,59.079788 
	C794.485596,59.079788 789.764099,59.079788 784.692749,59.079788 
	C784.692749,78.837334 784.692749,98.262093 784.692749,118.091721 
	C781.379578,118.091721 778.418091,118.091721 774.470093,118.091721 
M476.004425,187.596725 
	C476.715729,189.747757 477.427032,191.898773 478.082275,193.880219 
	C483.412811,193.880219 488.226196,193.880219 493.662903,193.880219 
	C479.961517,148.941986 466.352997,104.308418 452.680054,59.463474 
	C448.306030,59.463474 444.129639,59.729424 440.004974,59.381725 
	C436.527069,59.088551 435.105225,60.359966 434.112122,63.636234 
	C421.378387,105.646248 408.502838,147.613281 395.677338,189.595505 
	C395.267273,190.937790 395.007019,192.325836 394.655579,193.780792 
	C400.063477,193.780792 404.994598,193.780792 410.058960,193.780792 
	C413.118164,183.781525 416.122223,173.962631 419.171997,163.994186 
	C435.104797,163.994186 450.752380,163.925079 466.396271,164.134506 
	C467.560120,164.150085 469.290985,165.959473 469.746124,167.282974 
	C471.961517,173.725510 473.832336,180.286530 476.004425,187.596725 
M933.864563,194.021439 
	C937.030823,194.022095 940.212891,193.825974 943.358704,194.080048 
	C946.362732,194.322662 947.690186,193.357666 948.520386,190.307526 
	C950.909851,181.528412 953.741821,172.869751 956.363892,164.281952 
	C973.190735,164.281952 989.603943,164.281952 1006.151917,164.281952 
	C1009.242004,174.307037 1012.263550,184.109711 1015.272156,193.870422 
	C1020.617065,193.870422 1025.591797,193.870422 1030.956177,193.870422 
	C1017.259277,148.958725 1003.638245,104.296135 989.965698,59.464634 
	C985.142761,59.464634 980.657654,59.619213 976.189941,59.406712 
	C973.506348,59.279068 972.509888,60.309559 971.745605,62.821182 
	C958.768982,105.467049 945.670776,148.075928 932.665771,190.713226 
	C932.368347,191.688431 932.842957,192.899124 933.864563,194.021439 
M671.629028,125.793106 
	C666.726562,123.738655 661.857849,121.598587 656.912964,119.651955 
	C651.036804,117.338692 644.991577,115.428734 639.212158,112.903458 
	C633.850098,110.560600 629.834290,106.606918 627.973511,100.853485 
	C624.195435,89.171761 629.748596,76.729385 640.257019,73.250786 
	C652.801819,69.098076 665.841064,75.293808 669.884460,87.341766 
	C670.355286,88.744560 670.743164,90.175171 671.140625,91.496994 
	C676.521179,91.496994 681.640625,91.496994 687.107849,91.496994 
	C686.903809,89.770805 686.828796,88.291626 686.544373,86.853859 
	C680.519348,56.392529 649.915833,52.088032 631.720642,60.729691 
	C616.617126,67.902962 611.414856,80.881805 611.818787,96.829010 
	C612.201782,111.947960 619.306030,122.413399 633.384949,127.899078 
	C642.057251,131.278137 651.034058,133.904984 659.602295,137.515015 
	C673.291809,143.282791 677.753357,159.440750 669.358704,171.336533 
	C663.235229,180.013992 654.436584,181.317215 644.903870,179.888550 
	C635.796143,178.523590 630.829590,172.336624 628.097961,164.034943 
	C627.484192,162.169540 627.180786,160.202011 626.728394,158.254822 
	C621.498291,158.254822 616.412170,158.254822 611.017639,158.254822 
	C611.187317,160.202637 611.236450,161.849075 611.485657,163.464630 
	C614.682495,184.192780 631.301331,196.551727 654.085022,195.173843 
	C669.794495,194.223785 682.822998,183.516998 686.910828,168.197708 
	C691.644714,150.457306 686.333740,135.179382 671.629028,125.793106 
M305.131226,101.499954 
	C305.131226,132.252686 305.131226,163.005417 305.131226,193.675308 
	C310.481659,193.675308 315.215881,193.675308 320.257263,193.675308 
	C320.257263,174.889435 320.257263,156.450027 320.257263,137.119568 
	C329.861603,137.119568 339.184601,137.610413 348.437012,137.011337 
	C364.716217,135.957306 376.333862,126.182487 379.777252,110.304214 
	C381.161285,103.921982 381.388611,97.011650 380.669617,90.504410 
	C378.784546,73.443733 367.207947,60.966297 350.436066,59.548260 
	C335.595245,58.293499 320.564514,59.285362 305.131226,59.285362 
	C305.131226,72.938065 305.131226,86.719002 305.131226,101.499954 
M857.460938,184.163101 
	C858.527771,187.431427 859.594604,190.699753 860.642273,193.909393 
	C866.554077,193.909393 872.033691,193.909393 877.896729,193.909393 
	C892.127319,149.034821 906.359680,104.154892 920.712708,58.894348 
	C915.051086,58.894348 910.250427,58.894348 905.068665,58.894348 
	C893.289978,97.232422 881.513977,135.561646 869.294189,175.335342 
	C857.087708,135.531158 845.319458,97.156021 833.617126,58.995872 
	C828.062012,58.995872 823.118958,58.995872 817.779968,58.995872 
	C830.986694,100.696732 844.085266,142.055923 857.460938,184.163101 
M348.877899,288.968079 
	C346.551117,285.267273 344.224304,281.566467 341.773102,277.667847 
	C341.746429,277.699219 342.031708,277.290161 342.387390,276.956024 
	C349.863586,269.931793 350.076477,261.379639 346.939484,252.546585 
	C343.876007,243.920578 336.623566,241.352890 328.198334,241.261108 
	C320.534058,241.177582 312.866455,241.334854 305.203857,241.194275 
	C302.019104,241.135880 300.762146,242.220871 300.775604,245.524063 
	C300.869965,268.685822 300.856567,291.848206 300.786621,315.010132 
	C300.777802,317.922455 301.650208,319.280151 304.770538,319.226440 
	C313.432678,319.077301 322.099243,319.193481 330.762054,319.068512 
	C336.182434,318.990326 340.968658,317.016602 344.439209,312.830322 
	C350.066467,306.042480 351.115906,298.172119 348.877899,288.968079 
M526.398743,262.500610 
	C526.399353,279.656281 526.405640,296.811951 526.394653,313.967621 
	C526.392883,316.743073 526.210205,319.376038 530.357788,319.257874 
	C538.512817,319.025574 546.694275,319.381195 554.830261,318.904144 
	C565.974365,318.250763 572.804443,312.559937 575.169678,301.665131 
	C578.133057,288.015381 577.923218,274.123627 575.583435,260.451965 
	C573.572937,248.704376 566.760437,242.771957 554.811218,241.719131 
	C546.542603,240.990585 538.177307,241.380569 529.856384,241.214294 
	C526.747742,241.152176 526.400208,243.148651 526.401428,245.511398 
	C526.404114,250.841309 526.400146,256.171204 526.398743,262.500610 
M822.944275,266.404877 
	C822.944275,269.019531 822.944275,271.634216 822.944275,274.462891 
	C812.027039,274.462891 801.623047,274.462891 790.816589,274.462891 
	C790.816589,265.222168 790.768982,256.250916 790.840759,247.280594 
	C790.868103,243.859604 790.894226,241.093750 786.025391,241.114197 
	C781.410095,241.133621 781.465698,243.722641 781.471497,246.949600 
	C781.511353,269.282654 781.523071,291.615875 781.460388,313.948822 
	C781.451355,317.169983 781.767883,319.355682 785.949036,319.298065 
	C789.688965,319.246460 790.924316,317.910919 790.867676,314.284210 
	C790.715210,304.522156 790.815552,294.756165 790.815552,285.115967 
	C801.873230,285.115967 812.269653,285.115967 822.945862,285.115967 
	C822.945862,295.282410 823.041382,305.093353 822.892578,314.900574 
	C822.842468,318.201782 824.093445,319.344879 827.301147,319.243134 
	C830.085815,319.154785 832.139587,318.992554 832.125244,315.308655 
	C832.034058,291.975922 832.037964,268.642487 832.124084,245.309692 
	C832.137024,241.806976 830.391846,241.209885 827.437866,241.178879 
	C824.350342,241.146454 822.813965,242.035873 822.897766,245.431091 
	C823.062256,252.093597 822.944946,258.763092 822.944275,266.404877 
M681.496582,309.788971 
	C675.248901,309.788971 669.001160,309.788971 662.799744,309.788971 
	C662.799744,300.924683 662.799744,292.858704 662.799744,284.404053 
	C671.636475,284.404053 680.108582,284.310028 688.576904,284.449066 
	C692.100647,284.506897 694.623779,284.444946 694.518005,279.618134 
	C694.419495,275.122955 692.110291,274.977875 688.758789,275.026001 
	C680.129211,275.149902 671.496704,275.067444 662.655212,275.067444 
	C662.655212,266.851410 662.655212,259.106628 662.655212,250.864685 
	C672.500732,250.864685 682.130188,250.746292 691.753967,250.927780 
	C695.201538,250.992813 696.539307,249.870682 696.495544,246.369110 
	C696.454102,243.048904 695.949219,241.044144 691.862610,241.168579 
	C683.537598,241.422089 675.199402,241.244034 666.866638,241.243988 
	C653.499634,241.243896 653.499329,241.243958 653.499634,254.586258 
	C653.500122,274.418213 653.483154,294.250214 653.527527,314.082062 
	C653.532471,316.271393 652.839355,319.144531 656.556274,319.153076 
	C669.055237,319.181763 681.554260,319.174438 694.053284,319.169373 
	C697.748901,319.167877 697.083557,316.419098 697.148804,314.163086 
	C697.213806,311.914551 697.318237,309.692444 693.993164,309.772461 
	C690.162354,309.864624 686.327576,309.790710 681.496582,309.788971 
M394.195526,310.673157 
	C383.962860,310.430847 378.450562,305.596619 377.193970,295.521667 
	C376.824524,292.559601 376.844177,289.538239 376.836426,286.543671 
	C376.801483,273.052673 376.738098,259.560669 376.874329,246.070953 
	C376.911896,242.352051 375.497040,241.160522 371.853333,241.140091 
	C368.033173,241.118683 367.504364,243.024292 367.522522,246.135178 
	C367.606903,260.625092 367.553802,275.115753 367.596893,289.605988 
	C367.603790,291.933990 367.764069,294.269806 367.997406,296.587494 
	C369.447266,310.989807 377.991455,319.694061 391.067932,320.147034 
	C406.105408,320.667938 415.718262,313.824677 417.007141,298.587646 
	C418.531952,280.560944 417.846069,262.343872 417.935974,244.208405 
	C417.940826,243.233261 416.414124,241.652481 415.336304,241.373398 
	C410.637268,240.156662 408.957611,241.599884 408.943787,246.531052 
	C408.901825,261.520935 409.064423,276.513458 408.829498,291.499969 
	C408.651825,302.834473 404.369141,308.404083 394.195526,310.673157 
M1005.303894,289.888397 
	C1010.835571,289.555786 1016.363098,289.080933 1021.899780,288.918152 
	C1036.524780,288.488129 1044.817627,279.882324 1044.757935,265.016052 
	C1044.698853,250.292450 1036.635986,241.690079 1022.273987,241.289642 
	C1015.118652,241.090134 1007.948853,241.393921 1000.794800,241.172607 
	C997.049927,241.056763 995.898621,242.458664 995.918274,246.122086 
	C996.040710,268.935883 996.033142,291.750916 995.923157,314.564850 
	C995.906616,317.990662 996.967041,319.240936 1000.489258,319.294983 
	C1004.283813,319.353180 1005.383972,317.947601 1005.285400,314.312286 
	C1005.073364,306.491302 1005.226013,298.660400 1005.303894,289.888397 
M717.156189,250.758896 
	C708.966248,267.391571 710.597473,284.872894 714.014038,302.006622 
	C716.643311,315.191437 726.257568,320.820068 740.514038,320.097107 
	C752.524902,319.488007 761.578857,311.350616 763.778076,299.188110 
	C764.765564,293.727081 763.082031,291.841431 757.753540,293.285522 
	C756.254761,293.691742 754.767029,296.060028 754.242371,297.817444 
	C751.492188,307.029846 746.265564,311.201538 737.359985,310.815308 
	C728.997192,310.452606 722.892517,305.546906 722.206238,296.501007 
	C721.380310,285.613983 721.297241,274.547241 722.276367,263.683014 
	C723.169128,253.776901 730.248291,249.084900 740.182373,249.874054 
	C747.813110,250.480240 752.074280,254.128204 754.101562,263.069977 
	C755.180237,267.827820 758.169250,267.756531 761.529175,267.279816 
	C765.996094,266.646027 764.057129,263.136658 763.629456,260.980103 
	C761.573792,250.614349 755.610718,243.410217 745.095337,241.059982 
	C734.295349,238.646164 724.541382,240.445465 717.156189,250.758896 
M948.550903,309.224823 
	C948.312683,307.467560 947.871826,305.710785 947.867249,303.952881 
	C947.817505,284.821045 947.776306,265.688660 947.888367,246.557327 
	C947.909851,242.895355 947.059448,241.070190 942.896057,241.097397 
	C938.837891,241.123932 938.287659,243.111588 938.297363,246.410263 
	C938.364136,269.035706 938.381104,291.661682 938.283569,314.286896 
	C938.268250,317.833618 939.269592,319.367584 943.110413,319.296082 
	C954.086731,319.091675 965.070557,319.127289 976.048523,319.279755 
	C979.539246,319.328217 981.173462,318.489685 981.171326,314.575928 
	C981.169128,310.687164 979.933960,309.240173 975.990479,309.328247 
	C967.177795,309.524994 958.357361,309.375458 948.550903,309.224823 
M614.499939,241.245010 
	C607.501953,241.244965 600.498535,241.410553 593.508240,241.178802 
	C589.702026,241.052628 588.619812,242.571030 588.634216,246.167633 
	C588.648071,249.625992 589.337158,251.462631 593.346497,251.220215 
	C598.418457,250.913559 603.522949,251.146133 608.834351,251.146133 
	C608.834351,272.549835 608.862122,293.194122 608.804443,313.838104 
	C608.795715,316.948120 608.822510,319.284149 613.125610,319.302338 
	C617.249634,319.319763 618.157288,317.682709 618.129395,313.935272 
	C617.989563,295.108459 618.065552,276.280090 618.065857,257.452240 
	C618.065918,255.502899 618.065918,253.553574 618.065918,251.146164 
	C623.682373,251.146164 628.816223,250.951660 633.927185,251.209473 
	C637.814087,251.405533 638.240112,249.391632 638.206055,246.281204 
	C638.172913,243.259979 637.907288,241.070908 633.992859,241.194412 
	C627.834167,241.388718 621.664734,241.245377 614.499939,241.245010 
M506.224030,319.188477 
	C509.905334,319.656342 511.715729,318.463867 511.707703,314.325500 
	C511.699707,310.181702 509.846497,309.069214 506.183105,309.400208 
	C504.530365,309.549561 502.852905,309.426178 501.186676,309.426178 
	C493.607666,309.426270 486.028656,309.426239 478.158875,309.426239 
	C478.158875,307.003082 478.158875,305.360321 478.158905,303.717590 
	C478.159058,284.722412 478.109131,265.726990 478.205109,246.732300 
	C478.222565,243.273544 477.873779,241.062119 473.464111,241.114227 
	C469.397278,241.162308 468.896942,243.060577 468.909821,246.395065 
	C468.997528,269.055634 469.022888,291.717072 468.889343,314.377197 
	C468.867371,318.099915 470.090363,319.322510 473.789215,319.255188 
	C484.283051,319.064148 494.782654,319.188202 506.224030,319.188477 
M890.182251,264.500092 
	C890.180786,258.003632 890.098022,251.505783 890.209351,245.011246 
	C890.273010,241.297958 887.977478,241.231476 885.253845,241.196869 
	C882.470154,241.161499 880.885010,241.860291 880.894897,245.083664 
	C880.966858,268.570648 880.882507,292.058380 881.084167,315.543854 
	C881.094666,316.765686 883.238892,318.995544 884.428284,319.021973 
	C896.249268,319.285004 908.080811,319.287689 919.901917,319.027527 
	C921.140198,319.000275 923.157776,316.955444 923.396545,315.597473 
	C924.295471,310.484619 923.215881,309.452148 917.975891,309.435333 
	C908.864380,309.406097 899.752808,309.427216 890.182251,309.427216 
	C890.182251,294.408478 890.182251,279.954254 890.182251,264.500092 
M447.891754,309.417816 
	C447.891693,288.448547 447.856537,267.479126 447.928345,246.510086 
	C447.939484,243.262329 447.565765,241.120468 443.431366,241.133255 
	C439.715973,241.144745 438.480835,242.415436 438.498016,246.073410 
	C438.605072,268.872864 438.613434,291.673340 438.495087,314.472656 
	C438.475433,318.253967 439.919983,319.294006 443.519714,319.286652 
	C447.231323,319.279053 448.177124,317.606750 447.908905,314.380035 
	C447.798981,313.057831 447.891388,311.718811 447.891754,309.417816 
z"/>
<path fill="#860D0D" opacity="1.000000" stroke="none" 
	d="
M90.188492,176.157150 
	C90.188499,173.565155 90.188499,171.450317 90.188499,168.326630 
	C85.139046,171.783691 80.645752,174.538223 76.593842,177.835190 
	C75.417419,178.792419 75.080467,181.301163 75.075348,183.100723 
	C74.987579,213.929413 75.012405,244.758453 75.012474,275.587402 
	C75.012482,277.393036 75.012474,279.198639 75.012474,281.318573 
	C73.248558,281.424957 71.827705,281.510620 70.397224,281.596893 
	C70.093315,280.937744 69.724792,280.511230 69.724274,280.084259 
	C69.682602,245.923050 69.638336,211.761688 69.762146,177.600952 
	C69.767441,176.139755 71.008621,174.228989 72.251915,173.306244 
	C77.196266,169.636658 82.496391,166.441040 87.380066,162.698425 
	C88.802635,161.608231 89.978958,159.316284 90.063866,157.518311 
	C90.377960,150.867432 90.355469,144.186813 90.117859,137.529572 
	C89.999008,134.199463 90.842087,131.974060 93.839294,130.181122 
	C98.261093,127.535988 102.268867,124.200294 106.682610,121.539619 
	C109.863754,119.621964 111.309395,117.460358 111.042976,113.556068 
	C110.635521,107.584724 110.935997,101.565063 110.935875,95.565918 
	C110.935860,94.899345 110.809746,94.204178 110.954041,93.570534 
	C112.808121,85.428650 121.296951,84.699226 126.386925,80.163513 
	C127.238449,79.404709 130.723236,80.924026 132.560974,82.076683 
	C137.915451,85.435112 143.051804,89.141273 148.542664,92.894951 
	C155.386246,88.229248 162.225922,83.566208 169.195953,78.814285 
	C174.291092,82.277786 179.334564,85.498398 184.097153,89.091339 
	C185.271225,89.977081 186.072739,92.058777 186.118439,93.617867 
	C186.328369,100.777328 186.031387,107.953979 186.334198,115.106773 
	C186.409836,116.893501 187.610214,119.167450 189.029938,120.265274 
	C193.897278,124.029015 199.215012,127.210083 204.084839,130.970932 
	C205.510284,132.071777 206.737579,134.330627 206.816971,136.113861 
	C207.127914,143.099014 207.095413,150.111115 206.869934,157.102859 
	C206.776932,159.986557 207.791565,161.637573 210.152023,163.139404 
	C215.207748,166.356049 220.189407,169.717834 224.953003,173.346313 
	C226.277008,174.354813 227.467133,176.503464 227.474136,178.134384 
	C227.618561,211.795639 227.584229,245.457687 227.573059,279.119568 
	C227.572845,279.755646 227.424149,280.391663 227.310303,281.303406 
	C225.588394,281.303406 224.035934,281.303406 222.054657,281.303406 
	C222.054657,279.248444 222.054642,277.454346 222.054642,275.660248 
	C222.054672,244.997925 221.969727,214.335083 222.162018,183.673965 
	C222.186142,179.827423 221.071976,177.549591 217.826385,175.687103 
	C214.377274,173.707825 211.213837,171.230759 207.390106,168.603027 
	C207.390106,209.540970 207.390106,249.984787 207.390106,290.880890 
	C221.175858,290.880890 234.929245,290.880890 248.873260,290.880890 
	C248.873260,293.098633 248.873260,294.867950 248.873260,296.950989 
	C233.235001,296.950989 217.669159,296.950989 201.404572,296.950989 
	C201.404572,295.212158 201.404572,293.460938 201.404572,291.709717 
	C201.404709,241.716812 201.354919,191.723740 201.500290,141.731262 
	C201.511856,137.752441 200.448578,135.230576 196.981369,133.280121 
	C193.547852,131.348618 190.415314,128.882126 186.364502,126.112762 
	C186.364502,178.345993 186.364502,229.693512 186.364502,281.331818 
	C184.404907,281.431122 182.983231,281.503174 181.026794,281.602356 
	C181.026794,229.948792 181.026794,178.580551 181.026794,127.042519 
	C173.096878,129.662735 171.990219,131.141663 171.990234,138.592667 
	C171.990295,189.418777 171.990265,240.244904 171.990280,291.071014 
	C171.990280,292.893951 171.990295,294.716888 171.990295,296.900665 
	C156.385864,296.900665 141.003479,296.900665 125.132240,296.900665 
	C125.132240,295.099426 125.132240,293.320312 125.132240,291.541199 
	C125.132271,240.715073 124.959770,189.887665 125.336342,139.064331 
	C125.387177,132.203903 122.369377,129.306000 116.451035,126.642448 
	C116.451035,178.440369 116.451035,229.788925 116.451035,281.368561 
	C114.426323,281.368561 112.989212,281.368561 111.072449,281.368561 
	C111.072449,229.944183 111.072449,178.559555 111.072449,125.915245 
	C105.742249,129.574295 101.130562,132.400391 96.992302,135.802353 
	C95.853889,136.738205 95.806168,139.394104 95.803955,141.261398 
	C95.744751,191.254227 95.756943,241.247147 95.757042,291.240051 
	C95.757042,293.062103 95.757034,294.884186 95.757034,296.984314 
	C79.878212,296.984314 64.267761,296.984314 48.350513,296.984314 
	C48.350513,295.108765 48.350513,293.234711 48.350513,290.904449 
	C62.173733,290.904449 75.928947,290.904449 90.188484,290.904449 
	C90.188484,252.515060 90.188484,214.574677 90.188492,176.157150 
M151.245361,170.499893 
	C151.245361,207.418610 151.245361,244.337326 151.245361,281.308533 
	C149.128265,281.308533 147.710083,281.308533 145.904724,281.308533 
	C145.904724,279.243591 145.904709,277.444580 145.904709,275.645599 
	C145.904770,218.153015 145.926254,160.660385 145.816559,103.168015 
	C145.812683,101.139854 145.106644,98.384331 143.695190,97.224258 
	C139.466904,93.748993 134.785095,90.803436 130.137939,87.877220 
	C129.122101,87.237579 127.178047,86.952797 126.235626,87.497665 
	C120.169983,91.004578 113.860184,94.518059 116.260262,103.422203 
	C116.511513,104.354347 116.458275,105.445229 116.268494,106.407677 
	C114.483925,115.458038 117.890175,121.708038 126.284943,125.393089 
	C129.954315,127.003853 130.772659,129.883560 130.761749,133.824402 
	C130.622528,184.150848 130.669861,234.477814 130.669785,284.804657 
	C130.669785,286.728394 130.669769,288.652100 130.669769,290.631165 
	C142.947556,290.631165 154.542099,290.631165 166.538208,290.631165 
	C166.538208,288.561279 166.538208,286.751556 166.538208,284.941864 
	C166.538162,237.781281 166.865906,190.616684 166.286911,143.463211 
	C166.156769,132.863556 167.614883,124.781624 178.104126,120.210777 
	C179.440323,119.628510 180.651566,117.204361 180.732880,115.574257 
	C181.039658,109.423691 180.914230,103.247643 180.805832,97.083672 
	C180.784653,95.879440 180.464203,94.361252 179.693558,93.539558 
	C173.104019,86.513435 169.312424,86.175301 161.360825,91.632820 
	C159.163681,93.140808 157.061127,94.831062 154.723572,96.078758 
	C151.807907,97.635033 151.152740,99.839836 151.172379,103.008911 
	C151.309753,125.171867 151.245255,147.336075 151.245361,170.499893 
z"/>
<path fill="#060606" opacity="1.000000" stroke="none" 
	d="
M513.267090,115.999878 
	C513.267090,96.839882 513.267090,78.179893 513.267090,58.743034 
	C515.330566,58.743034 517.233765,58.739326 519.136902,58.743645 
	C529.969482,58.768238 540.808228,58.569550 551.633362,58.866310 
	C576.052124,59.535732 591.111816,76.076935 589.588257,100.518532 
	C588.478210,118.324516 581.221436,131.892776 562.575623,137.413910 
	C572.026978,156.193085 581.356873,174.730896 590.905273,193.702988 
	C584.778809,193.702988 579.083435,193.702988 573.141907,193.702988 
	C564.855225,176.835052 556.409729,159.855057 548.211792,142.756378 
	C546.781921,139.774094 545.247437,138.455856 541.852844,138.720322 
	C537.551270,139.055466 533.203857,138.801346 528.312134,138.801346 
	C528.312134,157.179184 528.312134,175.378677 528.312134,193.798325 
	C523.143494,193.798325 518.533325,193.798325 513.267029,193.798325 
	C513.267029,168.036697 513.267029,142.268295 513.267090,115.999878 
M560.791504,122.702194 
	C573.863892,116.075417 578.952820,96.544678 570.472534,83.232117 
	C568.236572,79.721962 564.102905,75.838936 560.320435,75.198250 
	C549.832642,73.421753 539.070801,73.263405 528.441406,72.467415 
	C528.441406,90.661690 528.441406,107.410522 528.441406,125.136436 
	C539.213684,124.394302 549.621094,123.677307 560.791504,122.702194 
z"/>
<path fill="#060606" opacity="1.000000" stroke="none" 
	d="
M774.963379,118.091721 
	C778.418091,118.091721 781.379578,118.091721 784.692749,118.091721 
	C784.692749,98.262093 784.692749,78.837334 784.692749,59.079788 
	C789.764099,59.079788 794.485596,59.079788 799.495972,59.079788 
	C799.495972,103.836937 799.495972,148.576202 799.495972,193.670837 
	C794.814209,193.670837 790.100281,193.670837 784.978027,193.670837 
	C784.978027,173.647629 784.978027,153.575485 784.978027,133.137421 
	C765.542480,133.137421 746.498657,133.137421 727.075562,133.137421 
	C727.075562,153.097672 727.075562,173.181763 727.075562,193.644684 
	C721.993713,193.644684 717.273926,193.644684 712.231750,193.644684 
	C712.231750,148.922852 712.231750,104.062820 712.231750,58.973419 
	C716.920288,58.973419 721.525940,58.973419 726.657715,58.973419 
	C726.657715,78.479637 726.657715,98.018105 726.657715,118.091721 
	C742.939575,118.091721 758.704834,118.091721 774.963379,118.091721 
z"/>
<path fill="#050505" opacity="1.000000" stroke="none" 
	d="
M475.914764,187.201172 
	C473.832336,180.286530 471.961517,173.725510 469.746124,167.282974 
	C469.290985,165.959473 467.560120,164.150085 466.396271,164.134506 
	C450.752380,163.925079 435.104797,163.994186 419.171997,163.994186 
	C416.122223,173.962631 413.118164,183.781525 410.058960,193.780792 
	C404.994598,193.780792 400.063477,193.780792 394.655579,193.780792 
	C395.007019,192.325836 395.267273,190.937790 395.677338,189.595505 
	C408.502838,147.613281 421.378387,105.646248 434.112122,63.636234 
	C435.105225,60.359966 436.527069,59.088551 440.004974,59.381725 
	C444.129639,59.729424 448.306030,59.463474 452.680054,59.463474 
	C466.352997,104.308418 479.961517,148.941986 493.662903,193.880219 
	C488.226196,193.880219 483.412811,193.880219 478.082275,193.880219 
	C477.427032,191.898773 476.715729,189.747757 475.914764,187.201172 
M444.499573,149.651352 
	C450.947388,149.651352 457.395233,149.651352 464.598907,149.651352 
	C457.759338,126.929832 451.114990,104.856804 444.470642,82.783783 
	C444.136719,82.828194 443.802795,82.872604 443.468872,82.917023 
	C436.848511,104.948608 430.228119,126.980186 423.415558,149.651337 
	C430.603271,149.651337 437.051727,149.651337 444.499573,149.651352 
z"/>
<path fill="#050505" opacity="1.000000" stroke="none" 
	d="
M933.411011,194.010712 
	C932.842957,192.899124 932.368347,191.688431 932.665771,190.713226 
	C945.670776,148.075928 958.768982,105.467049 971.745605,62.821182 
	C972.509888,60.309559 973.506348,59.279068 976.189941,59.406712 
	C980.657654,59.619213 985.142761,59.464634 989.965698,59.464634 
	C1003.638245,104.296135 1017.259277,148.958725 1030.956177,193.870422 
	C1025.591797,193.870422 1020.617065,193.870422 1015.272156,193.870422 
	C1012.263550,184.109711 1009.242004,174.307037 1006.151917,164.281952 
	C989.603943,164.281952 973.190735,164.281952 956.363892,164.281952 
	C953.741821,172.869751 950.909851,181.528412 948.520386,190.307526 
	C947.690186,193.357666 946.362732,194.322662 943.358704,194.080048 
	C940.212891,193.825974 937.030823,194.022095 933.411011,194.010712 
M973.539734,106.990059 
	C969.304382,121.074768 965.069092,135.159485 960.787354,149.398560 
	C974.725708,149.398560 987.983582,149.398560 1001.810791,149.398560 
	C995.029297,126.847260 988.365417,104.686996 981.304199,81.205490 
	C978.552673,90.381859 976.176453,98.306679 973.539734,106.990059 
z"/>
<path fill="#050505" opacity="1.000000" stroke="none" 
	d="
M671.956482,125.957092 
	C686.333740,135.179382 691.644714,150.457306 686.910828,168.197708 
	C682.822998,183.516998 669.794495,194.223785 654.085022,195.173843 
	C631.301331,196.551727 614.682495,184.192780 611.485657,163.464630 
	C611.236450,161.849075 611.187317,160.202637 611.017639,158.254822 
	C616.412170,158.254822 621.498291,158.254822 626.728394,158.254822 
	C627.180786,160.202011 627.484192,162.169540 628.097961,164.034943 
	C630.829590,172.336624 635.796143,178.523590 644.903870,179.888550 
	C654.436584,181.317215 663.235229,180.013992 669.358704,171.336533 
	C677.753357,159.440750 673.291809,143.282791 659.602295,137.515015 
	C651.034058,133.904984 642.057251,131.278137 633.384949,127.899078 
	C619.306030,122.413399 612.201782,111.947960 611.818787,96.829010 
	C611.414856,80.881805 616.617126,67.902962 631.720642,60.729691 
	C649.915833,52.088032 680.519348,56.392529 686.544373,86.853859 
	C686.828796,88.291626 686.903809,89.770805 687.107849,91.496994 
	C681.640625,91.496994 676.521179,91.496994 671.140625,91.496994 
	C670.743164,90.175171 670.355286,88.744560 669.884460,87.341766 
	C665.841064,75.293808 652.801819,69.098076 640.257019,73.250786 
	C629.748596,76.729385 624.195435,89.171761 627.973511,100.853485 
	C629.834290,106.606918 633.850098,110.560600 639.212158,112.903458 
	C644.991577,115.428734 651.036804,117.338692 656.912964,119.651955 
	C661.857849,121.598587 666.726562,123.738655 671.956482,125.957092 
z"/>
<path fill="#050505" opacity="1.000000" stroke="none" 
	d="
M305.131226,100.999954 
	C305.131226,86.719002 305.131226,72.938065 305.131226,59.285362 
	C320.564514,59.285362 335.595245,58.293499 350.436066,59.548260 
	C367.207947,60.966297 378.784546,73.443733 380.669617,90.504410 
	C381.388611,97.011650 381.161285,103.921982 379.777252,110.304214 
	C376.333862,126.182487 364.716217,135.957306 348.437012,137.011337 
	C339.184601,137.610413 329.861603,137.119568 320.257263,137.119568 
	C320.257263,156.450027 320.257263,174.889435 320.257263,193.675308 
	C315.215881,193.675308 310.481659,193.675308 305.131226,193.675308 
	C305.131226,163.005417 305.131226,132.252686 305.131226,100.999954 
M357.200928,77.120422 
	C345.370697,70.507568 332.645630,74.175331 320.359619,73.031868 
	C320.359619,90.132889 320.359619,106.359108 320.359619,122.678802 
	C329.418304,122.678802 338.205933,122.965744 346.963348,122.575424 
	C352.571503,122.325478 357.388763,119.884163 361.239227,115.402428 
	C368.026306,107.502594 368.502747,84.384148 357.200928,77.120422 
z"/>
<path fill="#050505" opacity="1.000000" stroke="none" 
	d="
M857.322388,183.789093 
	C844.085266,142.055923 830.986694,100.696732 817.779968,58.995872 
	C823.118958,58.995872 828.062012,58.995872 833.617126,58.995872 
	C845.319458,97.156021 857.087708,135.531158 869.294189,175.335342 
	C881.513977,135.561646 893.289978,97.232422 905.068665,58.894348 
	C910.250427,58.894348 915.051086,58.894348 920.712708,58.894348 
	C906.359680,104.154892 892.127319,149.034821 877.896729,193.909393 
	C872.033691,193.909393 866.554077,193.909393 860.642273,193.909393 
	C859.594604,190.699753 858.527771,187.431427 857.322388,183.789093 
z"/>
<path fill="#830707" opacity="1.000000" stroke="none" 
	d="
M348.972198,289.364288 
	C351.115906,298.172119 350.066467,306.042480 344.439209,312.830322 
	C340.968658,317.016602 336.182434,318.990326 330.762054,319.068512 
	C322.099243,319.193481 313.432678,319.077301 304.770538,319.226440 
	C301.650208,319.280151 300.777802,317.922455 300.786621,315.010132 
	C300.856567,291.848206 300.869965,268.685822 300.775604,245.524063 
	C300.762146,242.220871 302.019104,241.135880 305.203857,241.194275 
	C312.866455,241.334854 320.534058,241.177582 328.198334,241.261108 
	C336.623566,241.352890 343.876007,243.920578 346.939484,252.546585 
	C350.076477,261.379639 349.863586,269.931793 342.387390,276.956024 
	C342.031708,277.290161 341.746429,277.699219 341.773102,277.667847 
	C344.224304,281.566467 346.551117,285.267273 348.972198,289.364288 
M309.952301,300.471680 
	C309.952301,303.574829 309.952301,306.677979 309.952301,309.991425 
	C311.435486,310.058624 312.397736,310.141663 313.359772,310.139252 
	C318.669586,310.126099 323.990479,310.299255 329.286224,310.013092 
	C335.990753,309.650787 340.379395,304.569489 340.711365,297.291687 
	C341.047028,289.932739 336.842712,283.951569 330.059662,283.397705 
	C323.521362,282.863892 316.905365,283.282196 309.952301,283.282196 
	C309.952301,288.927277 309.952301,294.204651 309.952301,300.471680 
M309.950562,265.468628 
	C309.950562,268.242432 309.950562,271.016235 309.950562,273.999176 
	C316.930725,273.999176 323.392883,274.308960 329.810242,273.905487 
	C335.386169,273.554932 338.791199,269.338654 339.185059,263.448608 
	C339.633240,256.747345 337.195007,251.725693 331.769012,251.139496 
	C324.646576,250.370026 317.378235,250.950668 309.950562,250.950668 
	C309.950562,255.521881 309.950562,259.999725 309.950562,265.468628 
z"/>
<path fill="#860D0D" opacity="1.000000" stroke="none" 
	d="
M526.398804,262.000854 
	C526.400146,256.171204 526.404114,250.841309 526.401428,245.511398 
	C526.400208,243.148651 526.747742,241.152176 529.856384,241.214294 
	C538.177307,241.380569 546.542603,240.990585 554.811218,241.719131 
	C566.760437,242.771957 573.572937,248.704376 575.583435,260.451965 
	C577.923218,274.123627 578.133057,288.015381 575.169678,301.665131 
	C572.804443,312.559937 565.974365,318.250763 554.830261,318.904144 
	C546.694275,319.381195 538.512817,319.025574 530.357788,319.257874 
	C526.210205,319.376038 526.392883,316.743073 526.394653,313.967621 
	C526.405640,296.811951 526.399353,279.656281 526.398804,262.000854 
M535.703247,282.499908 
	C535.703247,291.429688 535.703247,300.359497 535.703247,309.598785 
	C541.824280,309.598785 547.463074,309.981476 553.029297,309.509216 
	C561.404907,308.798584 566.090942,304.761078 566.699646,296.361816 
	C567.452759,285.970795 567.358276,275.459045 566.751404,265.050659 
	C566.376160,258.616852 563.136353,252.858383 556.001953,251.783890 
	C549.393555,250.788635 542.608521,250.966293 535.703186,250.617447 
	C535.703186,261.567871 535.703186,271.533875 535.703247,282.499908 
z"/>
<path fill="#830707" opacity="1.000000" stroke="none" 
	d="
M822.944275,265.917297 
	C822.944946,258.763092 823.062256,252.093597 822.897766,245.431091 
	C822.813965,242.035873 824.350342,241.146454 827.437866,241.178879 
	C830.391846,241.209885 832.137024,241.806976 832.124084,245.309692 
	C832.037964,268.642487 832.034058,291.975922 832.125244,315.308655 
	C832.139587,318.992554 830.085815,319.154785 827.301147,319.243134 
	C824.093445,319.344879 822.842468,318.201782 822.892578,314.900574 
	C823.041382,305.093353 822.945862,295.282410 822.945862,285.115967 
	C812.269653,285.115967 801.873230,285.115967 790.815552,285.115967 
	C790.815552,294.756165 790.715210,304.522156 790.867676,314.284210 
	C790.924316,317.910919 789.688965,319.246460 785.949036,319.298065 
	C781.767883,319.355682 781.451355,317.169983 781.460388,313.948822 
	C781.523071,291.615875 781.511353,269.282654 781.471497,246.949600 
	C781.465698,243.722641 781.410095,241.133621 786.025391,241.114197 
	C790.894226,241.093750 790.868103,243.859604 790.840759,247.280594 
	C790.768982,256.250916 790.816589,265.222168 790.816589,274.462891 
	C801.623047,274.462891 812.027039,274.462891 822.944275,274.462891 
	C822.944275,271.634216 822.944275,269.019531 822.944275,265.917297 
z"/>
<path fill="#820505" opacity="1.000000" stroke="none" 
	d="
M681.995544,309.788940 
	C686.327576,309.790710 690.162354,309.864624 693.993164,309.772461 
	C697.318237,309.692444 697.213806,311.914551 697.148804,314.163086 
	C697.083557,316.419098 697.748901,319.167877 694.053284,319.169373 
	C681.554260,319.174438 669.055237,319.181763 656.556274,319.153076 
	C652.839355,319.144531 653.532471,316.271393 653.527527,314.082062 
	C653.483154,294.250214 653.500122,274.418213 653.499634,254.586258 
	C653.499329,241.243958 653.499634,241.243896 666.866638,241.243988 
	C675.199402,241.244034 683.537598,241.422089 691.862610,241.168579 
	C695.949219,241.044144 696.454102,243.048904 696.495544,246.369110 
	C696.539307,249.870682 695.201538,250.992813 691.753967,250.927780 
	C682.130188,250.746292 672.500732,250.864685 662.655212,250.864685 
	C662.655212,259.106628 662.655212,266.851410 662.655212,275.067444 
	C671.496704,275.067444 680.129211,275.149902 688.758789,275.026001 
	C692.110291,274.977875 694.419495,275.122955 694.518005,279.618134 
	C694.623779,284.444946 692.100647,284.506897 688.576904,284.449066 
	C680.108582,284.310028 671.636475,284.404053 662.799744,284.404053 
	C662.799744,292.858704 662.799744,300.924683 662.799744,309.788971 
	C669.001160,309.788971 675.248901,309.788971 681.995544,309.788940 
z"/>
<path fill="#830707" opacity="1.000000" stroke="none" 
	d="
M394.588348,310.614868 
	C404.369141,308.404083 408.651825,302.834473 408.829498,291.499969 
	C409.064423,276.513458 408.901825,261.520935 408.943787,246.531052 
	C408.957611,241.599884 410.637268,240.156662 415.336304,241.373398 
	C416.414124,241.652481 417.940826,243.233261 417.935974,244.208405 
	C417.846069,262.343872 418.531952,280.560944 417.007141,298.587646 
	C415.718262,313.824677 406.105408,320.667938 391.067932,320.147034 
	C377.991455,319.694061 369.447266,310.989807 367.997406,296.587494 
	C367.764069,294.269806 367.603790,291.933990 367.596893,289.605988 
	C367.553802,275.115753 367.606903,260.625092 367.522522,246.135178 
	C367.504364,243.024292 368.033173,241.118683 371.853333,241.140091 
	C375.497040,241.160522 376.911896,242.352051 376.874329,246.070953 
	C376.738098,259.560669 376.801483,273.052673 376.836426,286.543671 
	C376.844177,289.538239 376.824524,292.559601 377.193970,295.521667 
	C378.450562,305.596619 383.962860,310.430847 394.588348,310.614868 
z"/>
<path fill="#840808" opacity="1.000000" stroke="none" 
	d="
M1005.266602,290.360962 
	C1005.226013,298.660400 1005.073364,306.491302 1005.285400,314.312286 
	C1005.383972,317.947601 1004.283813,319.353180 1000.489258,319.294983 
	C996.967041,319.240936 995.906616,317.990662 995.923157,314.564850 
	C996.033142,291.750916 996.040710,268.935883 995.918274,246.122086 
	C995.898621,242.458664 997.049927,241.056763 1000.794800,241.172607 
	C1007.948853,241.393921 1015.118652,241.090134 1022.273987,241.289642 
	C1036.635986,241.690079 1044.698853,250.292450 1044.757935,265.016052 
	C1044.817627,279.882324 1036.524780,288.488129 1021.899780,288.918152 
	C1016.363098,289.080933 1010.835571,289.555786 1005.266602,290.360962 
M1035.035767,261.989288 
	C1034.228882,256.372894 1031.513062,251.864426 1025.658203,251.272858 
	C1019.006531,250.600800 1012.234802,251.117630 1005.452515,251.117630 
	C1005.452515,260.619781 1005.452515,269.832306 1005.452515,279.451782 
	C1010.180603,279.451782 1014.638855,279.476562 1019.096619,279.447052 
	C1031.463989,279.365234 1035.397583,275.280121 1035.035767,261.989288 
z"/>
<path fill="#830808" opacity="1.000000" stroke="none" 
	d="
M717.374817,250.465317 
	C724.541382,240.445465 734.295349,238.646164 745.095337,241.059982 
	C755.610718,243.410217 761.573792,250.614349 763.629456,260.980103 
	C764.057129,263.136658 765.996094,266.646027 761.529175,267.279816 
	C758.169250,267.756531 755.180237,267.827820 754.101562,263.069977 
	C752.074280,254.128204 747.813110,250.480240 740.182373,249.874054 
	C730.248291,249.084900 723.169128,253.776901 722.276367,263.683014 
	C721.297241,274.547241 721.380310,285.613983 722.206238,296.501007 
	C722.892517,305.546906 728.997192,310.452606 737.359985,310.815308 
	C746.265564,311.201538 751.492188,307.029846 754.242371,297.817444 
	C754.767029,296.060028 756.254761,293.691742 757.753540,293.285522 
	C763.082031,291.841431 764.765564,293.727081 763.778076,299.188110 
	C761.578857,311.350616 752.524902,319.488007 740.514038,320.097107 
	C726.257568,320.820068 716.643311,315.191437 714.014038,302.006622 
	C710.597473,284.872894 708.966248,267.391571 717.374817,250.465317 
z"/>
<path fill="#881111" opacity="1.000000" stroke="none" 
	d="
M949.045532,309.295898 
	C958.357361,309.375458 967.177795,309.524994 975.990479,309.328247 
	C979.933960,309.240173 981.169128,310.687164 981.171326,314.575928 
	C981.173462,318.489685 979.539246,319.328217 976.048523,319.279755 
	C965.070557,319.127289 954.086731,319.091675 943.110413,319.296082 
	C939.269592,319.367584 938.268250,317.833618 938.283569,314.286896 
	C938.381104,291.661682 938.364136,269.035706 938.297363,246.410263 
	C938.287659,243.111588 938.837891,241.123932 942.896057,241.097397 
	C947.059448,241.070190 947.909851,242.895355 947.888367,246.557327 
	C947.776306,265.688660 947.817505,284.821045 947.867249,303.952881 
	C947.871826,305.710785 948.312683,307.467560 949.045532,309.295898 
z"/>
<path fill="#820505" opacity="1.000000" stroke="none" 
	d="
M614.999878,241.245010 
	C621.664734,241.245377 627.834167,241.388718 633.992859,241.194412 
	C637.907288,241.070908 638.172913,243.259979 638.206055,246.281204 
	C638.240112,249.391632 637.814087,251.405533 633.927185,251.209473 
	C628.816223,250.951660 623.682373,251.146164 618.065918,251.146164 
	C618.065918,253.553574 618.065918,255.502899 618.065857,257.452240 
	C618.065552,276.280090 617.989563,295.108459 618.129395,313.935272 
	C618.157288,317.682709 617.249634,319.319763 613.125610,319.302338 
	C608.822510,319.284149 608.795715,316.948120 608.804443,313.838104 
	C608.862122,293.194122 608.834351,272.549835 608.834351,251.146133 
	C603.522949,251.146133 598.418457,250.913559 593.346497,251.220215 
	C589.337158,251.462631 588.648071,249.625992 588.634216,246.167633 
	C588.619812,242.571030 589.702026,241.052628 593.508240,241.178802 
	C600.498535,241.410553 607.501953,241.244965 614.999878,241.245010 
z"/>
<path fill="#840808" opacity="1.000000" stroke="none" 
	d="
M505.752014,319.188324 
	C494.782654,319.188202 484.283051,319.064148 473.789215,319.255188 
	C470.090363,319.322510 468.867371,318.099915 468.889343,314.377197 
	C469.022888,291.717072 468.997528,269.055634 468.909821,246.395065 
	C468.896942,243.060577 469.397278,241.162308 473.464111,241.114227 
	C477.873779,241.062119 478.222565,243.273544 478.205109,246.732300 
	C478.109131,265.726990 478.159058,284.722412 478.158905,303.717590 
	C478.158875,305.360321 478.158875,307.003082 478.158875,309.426239 
	C486.028656,309.426239 493.607666,309.426270 501.186676,309.426178 
	C502.852905,309.426178 504.530365,309.549561 506.183105,309.400208 
	C509.846497,309.069214 511.699707,310.181702 511.707703,314.325500 
	C511.715729,318.463867 509.905334,319.656342 505.752014,319.188324 
z"/>
<path fill="#830707" opacity="1.000000" stroke="none" 
	d="
M890.182251,265.000061 
	C890.182251,279.954254 890.182251,294.408478 890.182251,309.427216 
	C899.752808,309.427216 908.864380,309.406097 917.975891,309.435333 
	C923.215881,309.452148 924.295471,310.484619 923.396545,315.597473 
	C923.157776,316.955444 921.140198,319.000275 919.901917,319.027527 
	C908.080811,319.287689 896.249268,319.285004 884.428284,319.021973 
	C883.238892,318.995544 881.094666,316.765686 881.084167,315.543854 
	C880.882507,292.058380 880.966858,268.570648 880.894897,245.083664 
	C880.885010,241.860291 882.470154,241.161499 885.253845,241.196869 
	C887.977478,241.231476 890.273010,241.297958 890.209351,245.011246 
	C890.098022,251.505783 890.180786,258.003632 890.182251,265.000061 
z"/>
<path fill="#820707" opacity="1.000000" stroke="none" 
	d="
M447.891754,309.902618 
	C447.891388,311.718811 447.798981,313.057831 447.908905,314.380035 
	C448.177124,317.606750 447.231323,319.279053 443.519714,319.286652 
	C439.919983,319.294006 438.475433,318.253967 438.495087,314.472656 
	C438.613434,291.673340 438.605072,268.872864 438.498016,246.073410 
	C438.480835,242.415436 439.715973,241.144745 443.431366,241.133255 
	C447.565765,241.120468 447.939484,243.262329 447.928345,246.510086 
	C447.856537,267.479126 447.891693,288.448547 447.891754,309.902618 
z"/>
<path fill="#FCF8F8" opacity="1.000000" stroke="none" 
	d="
M151.245361,169.999878 
	C151.245255,147.336075 151.309753,125.171867 151.172379,103.008911 
	C151.152740,99.839836 151.807907,97.635033 154.723572,96.078758 
	C157.061127,94.831062 159.163681,93.140808 161.360825,91.632820 
	C169.312424,86.175301 173.104019,86.513435 179.693558,93.539558 
	C180.464203,94.361252 180.784653,95.879440 180.805832,97.083672 
	C180.914230,103.247643 181.039658,109.423691 180.732880,115.574257 
	C180.651566,117.204361 179.440323,119.628510 178.104126,120.210777 
	C167.614883,124.781624 166.156769,132.863556 166.286911,143.463211 
	C166.865906,190.616684 166.538162,237.781281 166.538208,284.941864 
	C166.538208,286.751556 166.538208,288.561279 166.538208,290.631165 
	C154.542099,290.631165 142.947556,290.631165 130.669769,290.631165 
	C130.669769,288.652100 130.669785,286.728394 130.669785,284.804657 
	C130.669861,234.477814 130.622528,184.150848 130.761749,133.824402 
	C130.772659,129.883560 129.954315,127.003853 126.284943,125.393089 
	C117.890175,121.708038 114.483925,115.458038 116.268494,106.407677 
	C116.458275,105.445229 116.511513,104.354347 116.260262,103.422203 
	C113.860184,94.518059 120.169983,91.004578 126.235626,87.497665 
	C127.178047,86.952797 129.122101,87.237579 130.137939,87.877220 
	C134.785095,90.803436 139.466904,93.748993 143.695190,97.224258 
	C145.106644,98.384331 145.812683,101.139854 145.816559,103.168015 
	C145.926254,160.660385 145.904770,218.153015 145.904709,275.645599 
	C145.904709,277.444580 145.904724,279.243591 145.904724,281.308533 
	C147.710083,281.308533 149.128265,281.308533 151.245361,281.308533 
	C151.245361,244.337326 151.245361,207.418610 151.245361,169.999878 
z"/>
<path fill="#FCFCFC" opacity="1.000000" stroke="none" 
	d="
M560.410034,122.831253 
	C549.621094,123.677307 539.213684,124.394302 528.441406,125.136436 
	C528.441406,107.410522 528.441406,90.661690 528.441406,72.467415 
	C539.070801,73.263405 549.832642,73.421753 560.320435,75.198250 
	C564.102905,75.838936 568.236572,79.721962 570.472534,83.232117 
	C578.952820,96.544678 573.863892,116.075417 560.410034,122.831253 
z"/>
<path fill="#F8F8F8" opacity="1.000000" stroke="none" 
	d="
M443.999878,149.651337 
	C437.051727,149.651337 430.603271,149.651337 423.415558,149.651337 
	C430.228119,126.980186 436.848511,104.948608 443.468872,82.917023 
	C443.802795,82.872604 444.136719,82.828194 444.470642,82.783783 
	C451.114990,104.856804 457.759338,126.929832 464.598907,149.651352 
	C457.395233,149.651352 450.947388,149.651352 443.999878,149.651337 
z"/>
<path fill="#F8F8F8" opacity="1.000000" stroke="none" 
	d="
M973.669922,106.610779 
	C976.176453,98.306679 978.552673,90.381859 981.304199,81.205490 
	C988.365417,104.686996 995.029297,126.847260 1001.810791,149.398560 
	C987.983582,149.398560 974.725708,149.398560 960.787354,149.398560 
	C965.069092,135.159485 969.304382,121.074768 973.669922,106.610779 
z"/>
<path fill="#FCFCFC" opacity="1.000000" stroke="none" 
	d="
M357.502869,77.336914 
	C368.502747,84.384148 368.026306,107.502594 361.239227,115.402428 
	C357.388763,119.884163 352.571503,122.325478 346.963348,122.575424 
	C338.205933,122.965744 329.418304,122.678802 320.359619,122.678802 
	C320.359619,106.359108 320.359619,90.132889 320.359619,73.031868 
	C332.645630,74.175331 345.370697,70.507568 357.502869,77.336914 
z"/>
<path fill="#FDFBFB" opacity="1.000000" stroke="none" 
	d="
M309.952301,299.976837 
	C309.952301,294.204651 309.952301,288.927277 309.952301,283.282196 
	C316.905365,283.282196 323.521362,282.863892 330.059662,283.397705 
	C336.842712,283.951569 341.047028,289.932739 340.711365,297.291687 
	C340.379395,304.569489 335.990753,309.650787 329.286224,310.013092 
	C323.990479,310.299255 318.669586,310.126099 313.359772,310.139252 
	C312.397736,310.141663 311.435486,310.058624 309.952301,309.991425 
	C309.952301,306.677979 309.952301,303.574829 309.952301,299.976837 
z"/>
<path fill="#FCFAFA" opacity="1.000000" stroke="none" 
	d="
M309.950562,264.973083 
	C309.950562,259.999725 309.950562,255.521881 309.950562,250.950668 
	C317.378235,250.950668 324.646576,250.370026 331.769012,251.139496 
	C337.195007,251.725693 339.633240,256.747345 339.185059,263.448608 
	C338.791199,269.338654 335.386169,273.554932 329.810242,273.905487 
	C323.392883,274.308960 316.930725,273.999176 309.950562,273.999176 
	C309.950562,271.016235 309.950562,268.242432 309.950562,264.973083 
z"/>
<path fill="#FEFCFC" opacity="1.000000" stroke="none" 
	d="
M535.703247,281.999878 
	C535.703186,271.533875 535.703186,261.567871 535.703186,250.617447 
	C542.608521,250.966293 549.393555,250.788635 556.001953,251.783890 
	C563.136353,252.858383 566.376160,258.616852 566.751404,265.050659 
	C567.358276,275.459045 567.452759,285.970795 566.699646,296.361816 
	C566.090942,304.761078 561.404907,308.798584 553.029297,309.509216 
	C547.463074,309.981476 541.824280,309.598785 535.703247,309.598785 
	C535.703247,300.359497 535.703247,291.429688 535.703247,281.999878 
z"/>
<path fill="#FDFBFB" opacity="1.000000" stroke="none" 
	d="
M1035.072754,262.423859 
	C1035.397583,275.280121 1031.463989,279.365234 1019.096619,279.447052 
	C1014.638855,279.476562 1010.180603,279.451782 1005.452515,279.451782 
	C1005.452515,269.832306 1005.452515,260.619781 1005.452515,251.117630 
	C1012.234802,251.117630 1019.006531,250.600800 1025.658203,251.272858 
	C1031.513062,251.864426 1034.228882,256.372894 1035.072754,262.423859 
z"/>
</svg>