<?xml version="1.0" encoding="UTF-8"?>
<svg version="1.1" xmlns="http://www.w3.org/2000/svg" width="1050" height="347">
<path d="M0 0 C346.5 0 693 0 1050 0 C1050 114.51 1050 229.02 1050 347 C703.5 347 357 347 0 347 C0 232.49 0 117.98 0 0 Z " fill="#FEFEFE" transform="translate(0,0)"/>
<path d="M0 0 C13.59610524 -0.09296122 27.192134 -0.16389738 40.78849316 -0.20724869 C47.10284393 -0.22806234 53.41697615 -0.25626613 59.73120117 -0.30175781 C65.83259014 -0.34543757 71.93376978 -0.36918383 78.03530312 -0.37950897 C80.35514937 -0.38686072 82.67498506 -0.40121629 84.99474144 -0.42292023 C115.76585062 -0.69918989 115.76585062 -0.69918989 127 10 C137.29081055 20.75857467 140.45522905 35.37409546 140.25471497 49.85462952 C140.2049001 52.07041883 140.13657963 54.28489758 140.0625 56.5 C139.99392947 58.75240848 139.93215649 61.00415087 139.88926697 63.25720215 C139.85011486 65.27927141 139.78729858 67.3008429 139.72290039 69.32226562 C140.16244008 75.15594487 142.37334908 80.04551086 146.26171875 84.51171875 C150.03586211 87.74306397 154.59297157 89.76993742 159 92 C159 98.93 159 105.86 159 113 C156.793125 113.99 154.58625 114.98 152.3125 116 C146.33172038 118.85163572 142.48565427 121.61228513 140 128 C139.06292921 130.81121237 138.89127328 132.41584619 138.93408203 135.31274414 C138.94384064 136.18117447 138.95359924 137.0496048 138.96365356 137.9443512 C138.98551224 139.3505497 138.98551224 139.3505497 139.0078125 140.78515625 C139.02534439 142.78059374 139.04225115 144.77603679 139.05859375 146.77148438 C139.08941618 149.90925629 139.12476593 153.04674707 139.17138672 156.18432617 C139.21409045 159.21797014 139.23727804 162.25129148 139.2578125 165.28515625 C139.28574387 166.67010033 139.28574387 166.67010033 139.3142395 168.08302307 C139.34303322 175.50588533 138.48977148 182.82476746 133.80078125 188.8046875 C122.29658606 198.37646686 110.80446518 202.02209532 95.875 203.125 C94.8837915 203.20282715 93.89258301 203.2806543 92.87133789 203.36083984 C72.30215823 204.76720388 51.60843283 204.70807371 31 205 C31.47473824 203.38878428 31.95173222 201.77823309 32.4296875 200.16796875 C32.69507324 199.27102295 32.96045898 198.37407715 33.23388672 197.44995117 C34 195 34 195 35.125 192.3125 C40.11312532 179.12959736 36.53077284 163.11429914 33 150 C37.73219365 150 40.20262294 151.63573598 44.0625 154.0625 C44.73442383 154.47371094 45.40634766 154.88492188 46.09863281 155.30859375 C49.87087947 157.62776019 53.56644539 160.04236937 57.25 162.5 C64.37634454 167.08046061 72.095449 170.50814816 79.796875 173.99707031 C81.69631434 174.86175303 83.58377939 175.75265192 85.46875 176.6484375 C92.75658203 179.96631893 101.11062537 182.62979154 109 180 C112.37755138 173.22654097 112.42816297 165.73090753 112.40625 158.33203125 C112.42250427 156.71345467 112.42250427 156.71345467 112.43908691 155.06217957 C112.48460939 150.48851561 112.49643357 145.91491427 112.51123047 141.34106445 C112.52695367 137.98368386 112.55994559 134.62677068 112.59375 131.26953125 C112.59072876 130.24334183 112.58770752 129.2171524 112.58459473 128.15986633 C112.67442356 119.5579059 114.61848563 113.95012132 120.44921875 107.51171875 C123.46721609 104.56974149 125.76325656 103 130 103 C127.04868159 99.76307014 124.13935268 97.35794577 120.4375 95 C116.23757066 92.28856475 113.26393733 89.52787467 111 85 C110.90343953 83.23385438 110.86924525 81.46409458 110.8671875 79.6953125 C110.86589844 78.63699219 110.86460937 77.57867187 110.86328125 76.48828125 C110.86714844 75.37839844 110.87101562 74.26851563 110.875 73.125 C110.87113281 72.02285156 110.86726563 70.92070312 110.86328125 69.78515625 C110.86457031 68.72425781 110.86585938 67.66335937 110.8671875 66.5703125 C110.86831543 65.59852051 110.86944336 64.62672852 110.87060547 63.62548828 C110.98822889 61.23884252 111.39738915 59.29622494 112 57 C112.28868846 53.69104556 112.32256427 50.38263513 112.375 47.0625 C112.41238281 46.16853516 112.44976562 45.27457031 112.48828125 44.35351562 C112.54712473 39.95006177 112.54569086 37.73122575 109.8515625 34.12109375 C108.91054688 33.42113281 107.96953125 32.72117188 107 32 C106.06285156 31.236875 105.12570312 30.47375 104.16015625 29.6875 C100.37961865 27.66872096 97.5761216 27.59796808 93.4375 28 C92.34417358 28.08640747 92.34417358 28.08640747 91.22875977 28.17456055 C77.42410311 29.43559772 63.81602158 32.60528512 50.4453125 36.16796875 C46.97306195 37.00650545 43.54190542 37.55160021 40 38 C39.75765625 37.34773438 39.5153125 36.69546875 39.265625 36.0234375 C35.18954089 25.39426432 30.37786639 20.37131986 21 14 C20.23042969 13.46117188 19.46085937 12.92234375 18.66796875 12.3671875 C13.69989164 8.94771821 8.54473361 6.06477903 3.1875 3.296875 C1 2 1 2 0 0 Z " fill="#020202" transform="translate(168,67)"/>
<path d="M0 0 C3.47703383 3.07637042 4.98073983 7.12291649 6.63378906 11.37158203 C8.88405982 16.50065768 12.15343002 21.08607944 15.18310547 25.78076172 C16.4702375 27.84512783 17.75412899 29.91151818 19.03466797 31.97998047 C22.7405814 37.92612144 26.53964011 43.8085717 30.42114258 49.64160156 C32.66460921 53.05258207 34.21032882 56.0675701 35.74560547 59.90576172 C4.06560547 59.90576172 -27.61439453 59.90576172 -60.25439453 59.90576172 C-60.25439453 12.63376172 -60.25439453 12.63376172 -53.25439453 4.90576172 C-42.35958689 -3.37429209 -12.73527334 -6.18144847 0 0 Z " fill="#0E9DA7" transform="translate(105.25439453125,69.09423828125)"/>
<path d="M0 0 C0.70898438 0.21398437 1.41796875 0.42796875 2.1484375 0.6484375 C13.53494238 4.34785048 23.69108152 11.5568261 32 20 C32.64582031 20.64710937 33.29164063 21.29421875 33.95703125 21.9609375 C38.53595 26.84910784 42.868067 32.604201 45 39 C43.97668349 43.03570448 41.64349583 46.37214602 39.4375 49.875 C38.71265061 51.03329703 37.98872736 52.19217403 37.265625 53.3515625 C36.89115234 53.95129883 36.51667969 54.55103516 36.13085938 55.16894531 C34.65104201 57.56502266 33.21504093 59.98579144 31.77929688 62.40844727 C26.4296939 71.43171543 20.74604218 80.22520288 15 89 C11.3070829 85.52582711 8.55366878 82.04809211 5.875 77.75 C5.07980546 76.48804274 4.28421601 75.22633427 3.48828125 73.96484375 C3.07787598 73.30983887 2.6674707 72.65483398 2.24462891 71.97998047 C0.20882792 68.74138768 -1.86152606 65.52544723 -3.9375 62.3125 C-4.3804541 61.62639648 -4.8234082 60.94029297 -5.27978516 60.23339844 C-10.17350105 52.68385511 -15.18203032 45.21084058 -20.18222046 37.73165894 C-25.36888464 29.97218965 -30.51956929 22.19243851 -35.55786133 14.33544922 C-38.3077228 10.04791903 -41.13272824 5.82357866 -44.07421875 1.6640625 C-45 0 -45 0 -45 -3 C-32.70733949 -9.14633025 -12.17996715 -4.20996226 0 0 Z " fill="#109EA7" transform="translate(158,72)"/>
<path d="M0 0 C8.46673737 -0.25561453 16.93184727 -0.45067599 25.40149689 -0.56993389 C29.33513756 -0.62719432 33.26612751 -0.70474639 37.19824219 -0.82983398 C40.99807939 -0.94994791 44.79537983 -1.01523852 48.5969696 -1.04364967 C50.04212902 -1.06387473 51.48715924 -1.10337863 52.93122864 -1.16303062 C64.21258369 -1.61022699 64.21258369 -1.61022699 68.61087036 2.35205078 C70.67257586 5.15115846 72.36197629 7.93742832 74 11 C75.02876797 12.61856856 76.06597949 14.23185227 77.1171875 15.8359375 C78.04129841 17.34600701 78.96066533 18.85899109 79.875 20.375 C80.34679687 21.14199219 80.81859375 21.90898437 81.3046875 22.69921875 C86.47970726 31.21153819 88.25984847 37.87621768 87 48 C84.1381626 55.28085103 78.12246425 60.58879821 71.1328125 63.87890625 C62.97386012 66.5703449 54.62681171 64.02904245 47.21411133 60.35083008 C24.11771795 48.14089086 11.30194282 22.67086991 0 0 Z " fill="#109EA7" transform="translate(114,207)"/>
<path d="M0 0 C8.69591856 3.95023517 16.80174117 12.10618287 22 20 C24.00675428 25.78636748 23.26828168 31.56104691 22.36279297 37.51074219 C22.00686082 39.95292539 21.80936372 42.35763575 21.66015625 44.8203125 C20.65749433 59.7377788 18.32862276 77.48215415 8 89 C1.76531728 94.05832749 -5.26640848 94.63501631 -13 94 C-20.31088922 92.43173354 -25.40882148 89.59934608 -29.625 83.3125 C-33.36645764 76.98261254 -35.33483768 70.31678553 -36 63 C-36.185625 61.80375 -36.37125 60.6075 -36.5625 59.375 C-36.47355649 52.79318034 -31.57034737 47.25168717 -28 42 C-26.97712891 40.45699219 -26.97712891 40.45699219 -25.93359375 38.8828125 C-24.60426438 36.87971345 -23.26832612 34.88098444 -21.92578125 32.88671875 C-20.11815941 30.17711928 -18.36257511 27.44239075 -16.625 24.6875 C-13.7260745 20.10532744 -10.75450757 15.57580475 -7.75 11.0625 C-7.32541504 10.4233667 -6.90083008 9.7842334 -6.46337891 9.12573242 C-4.38867902 6.01862824 -2.28330291 2.95791513 0 0 Z " fill="#109EA6" transform="translate(81,178)"/>
<path d="M0 0 C0.09765625 6.15234375 0.09765625 6.15234375 0 8 C-2.04698414 10.04698414 -6.30411241 9.70045693 -9 10 C-8.505 10.61875 -8.01 11.2375 -7.5 11.875 C-5.16018684 16.74961075 -5.14997254 21.8031576 -6.5390625 27.02734375 C-8.72714549 32.5215961 -11.59273136 36.51164854 -16.8125 39.3125 C-23.81138417 42.20055869 -32.55972642 41.89405508 -39.890625 40.41796875 C-40.58671875 40.28003906 -41.2828125 40.14210937 -42 40 C-43.41577477 41.18424326 -43.41577477 41.18424326 -43.0625 44.5625 C-43.041875 45.696875 -43.02125 46.83125 -43 48 C-40.19682379 48.93439207 -38.30654775 49.16040378 -35.39453125 49.24609375 C-34.49283203 49.27896484 -33.59113281 49.31183594 -32.66210938 49.34570312 C-30.78200365 49.40626856 -28.9017916 49.46362949 -27.02148438 49.51757812 C-18.44848308 49.8400544 -11.16554658 51.03923698 -4 56 C-0.97150964 59.33910476 0.26330098 61.93880227 0.5 66.375 C0.17339492 72.2637885 -1.52607583 76.7685204 -5.953125 80.76171875 C-13.94550076 86.53243761 -21.48048959 87.15862688 -31.0625 87.3125 C-32.19643188 87.33932861 -32.19643188 87.33932861 -33.35327148 87.36669922 C-40.33348553 87.35606907 -46.64827817 85.77896749 -51.9375 81 C-52.50339844 80.505 -53.06929687 80.01 -53.65234375 79.5 C-56.53847307 76.28761258 -56.33150274 72.36245615 -56.28515625 68.27734375 C-55.8451625 64.76342103 -54.20950488 62.70050597 -52 60 C-51.2575 59.05125 -50.515 58.1025 -49.75 57.125 C-49.1725 56.42375 -48.595 55.7225 -48 55 C-48.61875 54.731875 -49.2375 54.46375 -49.875 54.1875 C-52 53 -52 53 -54 50 C-54.84946968 42.96153695 -52.79677257 38.85787768 -49 33 C-49.4846875 32.32582031 -49.969375 31.65164062 -50.46875 30.95703125 C-53.34975725 25.39345348 -52.69061504 19.07999408 -52 13 C-50.11314872 7.79757055 -46.7027188 3.91120688 -42 1 C-29.56207617 -4.0767036 -13.1279616 -0.62736573 0 0 Z " fill="#070707" transform="translate(967,149)"/>
<path d="M0 0 C1.14045776 -0.00966797 1.14045776 -0.00966797 2.30395508 -0.01953125 C10.10891019 0.1574866 17.14990996 3.02616296 22.8125 8.5 C30.04984591 18.75912436 29.72552577 30.37818017 28.8125 42.5 C27.23034331 50.43937662 22.50136493 57.1157774 15.9453125 61.84765625 C7.67559555 66.79883872 -2.93390847 66.76685661 -12.21484375 64.88671875 C-19.54871622 62.32155843 -24.01690705 57.77033568 -27.50390625 50.91015625 C-31.47279098 40.82891245 -31.94567777 28.78766447 -28.625 18.4375 C-25.26449223 10.72121213 -20.05422069 4.85853742 -12.3359375 1.34375 C-8.19171575 0.23313971 -4.27689181 0.03475382 0 0 Z " fill="#060606" transform="translate(583.1875,147.5)"/>
<path d="M0 0 C1.16273438 -0.04898438 2.32546875 -0.09796875 3.5234375 -0.1484375 C6.625 0.375 6.625 0.375 8.1897583 2.5697937 C9.57499092 5.27725633 10.67724939 7.9158792 11.69042969 10.78173828 C12.06802429 11.84119659 12.4456189 12.90065491 12.83465576 13.99221802 C13.23468811 15.1317392 13.63472046 16.27126038 14.046875 17.4453125 C14.46994934 18.63615448 14.89302368 19.82699646 15.32891846 21.05392456 C16.45452703 24.22472257 17.57557083 27.39705573 18.69421387 30.5703125 C20.24650792 34.97028817 21.80718953 39.36729509 23.36706543 43.7645874 C24.23319425 46.20784207 25.09754945 48.65172624 25.96008301 51.09625244 C27.8660105 56.48598358 29.7921041 61.86320885 31.82617188 67.20605469 C32.32204803 68.5139949 32.32204803 68.5139949 32.82794189 69.84835815 C33.42904967 71.42300386 34.03831845 72.99457265 34.65789795 74.56204224 C36.21930448 78.65264009 36.93861221 81.99556824 36.625 86.375 C32.995 86.375 29.365 86.375 25.625 86.375 C22.79890505 79.4106946 20.19880501 72.45296377 17.625 65.375 C5.745 65.045 -6.135 64.715 -18.375 64.375 C-19.365 67.675 -20.355 70.975 -21.375 74.375 C-22.06138719 76.40339249 -22.76494657 78.42623176 -23.5 80.4375 C-23.83257812 81.35660156 -24.16515625 82.27570313 -24.5078125 83.22265625 C-25.375 85.375 -25.375 85.375 -26.375 86.375 C-28.06108966 86.44705511 -29.75000659 86.45886068 -31.4375 86.4375 C-32.81615234 86.42396484 -32.81615234 86.42396484 -34.22265625 86.41015625 C-34.93292969 86.39855469 -35.64320313 86.38695312 -36.375 86.375 C-36.54231361 82.16024098 -36.13684573 78.97797699 -34.68188477 75.02587891 C-34.31051895 74.00265533 -33.93915314 72.97943176 -33.55653381 71.92520142 C-33.14729172 70.82840057 -32.73804962 69.73159973 -32.31640625 68.6015625 C-31.89383041 67.44618988 -31.47125458 66.29081726 -31.03587341 65.10043335 C-29.67875281 61.39690935 -28.30826791 57.69849155 -26.9375 54 C-26.04926524 51.58104661 -25.16188715 49.16177846 -24.27539062 46.7421875 C-21.65935576 39.61328908 -19.0194709 32.49338936 -16.375 25.375 C-15.71863556 23.6032843 -15.71863556 23.6032843 -15.04901123 21.79577637 C-13.79492256 18.41215508 -12.53687793 15.03003496 -11.27734375 11.6484375 C-10.89727676 10.6226358 -10.51720978 9.59683411 -10.12562561 8.53994751 C-9.77729172 7.60814667 -9.42895782 6.67634583 -9.07006836 5.71630859 C-8.76548203 4.89826752 -8.46089569 4.08022644 -8.14707947 3.23739624 C-6.51911401 -0.68955283 -3.98927534 0.11448252 0 0 Z " fill="#080808" transform="translate(393.375,125.625)"/>
<path d="M0 0 C18.48 0 36.96 0 56 0 C49.3062954 11.15617433 49.3062954 11.15617433 46.22265625 15.24609375 C41.43189543 21.72221849 36.93819348 28.38361788 32.4375 35.0625 C30.81230673 37.47080246 29.18593882 39.87830732 27.55859375 42.28515625 C27.16556061 42.86660904 26.77252747 43.44806183 26.36758423 44.0471344 C23.50442689 48.27491001 20.58941176 52.46352282 17.65063477 56.63891602 C15.93860211 59.08782414 14.25467843 61.55402667 12.578125 64.02734375 C12.02769531 64.83880859 11.47726563 65.65027344 10.91015625 66.48632812 C9.78577523 68.14644364 8.66343909 69.80794565 7.54296875 71.47070312 C6.72505859 72.67436523 6.72505859 72.67436523 5.890625 73.90234375 C5.40625977 74.61898193 4.92189453 75.33562012 4.42285156 76.07397461 C3 78 3 78 0 81 C0 54.27 0 27.54 0 0 Z " fill="#119DA6" transform="translate(44,138)"/>
<path d="M0 0 C7.71484375 -0.09765625 7.71484375 -0.09765625 10 0 C11 1 11 1 11.09765625 4.37890625 C11.09098369 5.77347077 11.07902532 7.16801743 11.0625 8.5625 C11.05798828 9.27341797 11.05347656 9.98433594 11.04882812 10.71679688 C11.03700864 12.47790013 11.01907263 14.23896036 11 16 C12.85516235 15.99214478 12.85516235 15.99214478 14.74780273 15.98413086 C19.31924725 15.96608439 23.89068859 15.95456929 28.4621582 15.94506836 C30.44393441 15.94002733 32.42570689 15.93319462 34.4074707 15.92456055 C37.24952109 15.91248485 40.09152247 15.90676955 42.93359375 15.90234375 C43.82525742 15.89718246 44.71692108 15.89202118 45.63560486 15.88670349 C47.75740601 15.88650823 49.8791078 15.9378997 52 16 C53.76723811 17.76723811 53.12762833 20.3031884 53.12939453 22.69726562 C53.13254669 23.91522827 53.13569885 25.13319092 53.13894653 26.38806152 C53.13715675 27.72745805 53.1351058 29.06685424 53.1328125 30.40625 C53.1334856 31.7700604 53.13445567 33.13387068 53.13571167 34.49768066 C53.13718838 37.35930521 53.13503497 40.2208986 53.13037109 43.08251953 C53.12467381 46.75818614 53.12795296 50.43377974 53.13394356 54.10944366 C53.13754991 56.92662104 53.13641025 59.74378098 53.13381577 62.56095886 C53.1331467 63.91660063 53.13397421 65.27224396 53.13629532 66.62788391 C53.13882301 68.51950044 53.13429014 70.41112249 53.12939453 72.30273438 C53.12859894 73.38115601 53.12780334 74.45957764 53.12698364 75.57067871 C53 78 53 78 52 79 C48.7 79 45.4 79 42 79 C42 61.18 42 43.36 42 25 C31.77 25 21.54 25 11 25 C11.12003328 30.46279107 11.24274677 35.92538536 11.37231445 41.38793945 C11.41556221 43.24532519 11.45724428 45.10274808 11.49731445 46.96020508 C11.5552637 49.63374008 11.61888652 52.30708981 11.68359375 54.98046875 C11.70030624 55.80773972 11.71701874 56.63501068 11.73423767 57.48735046 C11.8352296 61.43903895 12.04295881 65.14118269 13 69 C18.23471686 69.75612577 22.77254141 70.2063366 28 69 C28.48828125 74.95703125 28.48828125 74.95703125 28 77 C23.53062089 80.60145975 19.46896531 80.51236867 13.9453125 80.3359375 C9.4205752 79.8198534 7.50327513 78.99238084 4 76 C0.17558253 69.82023199 -0.5593595 64.0625439 -0.390625 56.93359375 C-0.38496521 56.01409439 -0.37930542 55.09459503 -0.37347412 54.14723206 C-0.35128849 51.24343236 -0.30112758 48.34091943 -0.25 45.4375 C-0.2299119 43.45509609 -0.2116652 41.47267262 -0.1953125 39.49023438 C-0.15148241 34.65966914 -0.08258128 29.83005184 0 25 C-3.3 25 -6.6 25 -10 25 C-11.36623674 22.26752652 -11.128426 20.01801098 -11 17 C-10 16 -10 16 -7.71484375 15.90234375 C-5.14322917 15.93489583 -2.57161458 15.96744792 0 16 C0 10.72 0 5.44 0 0 Z " fill="#030303" transform="translate(773,133)"/>
<path d="M0 0 C6.84858187 6.6729772 10.44726502 12.63801697 10.79394531 22.41992188 C10.80013211 24.22787864 10.79007632 26.035948 10.765625 27.84375 C10.76375183 28.80526978 10.76187866 29.76678955 10.75994873 30.75744629 C10.75327228 32.77095048 10.73944678 34.78444268 10.71875 36.79785156 C10.68730703 39.89400147 10.67774475 42.98964299 10.671875 46.0859375 C10.66271545 48.04688127 10.65234305 50.00781984 10.640625 51.96875 C10.63425018 53.36232727 10.63425018 53.36232727 10.62774658 54.78405762 C10.61813904 55.63584595 10.60853149 56.48763428 10.59863281 57.36523438 C10.59180481 58.11752319 10.58497681 58.86981201 10.57794189 59.64489746 C10.4375 61.375 10.4375 61.375 9.4375 62.375 C7.75141034 62.44705511 6.06249341 62.45886068 4.375 62.4375 C2.99634766 62.42396484 2.99634766 62.42396484 1.58984375 62.41015625 C0.52443359 62.39275391 0.52443359 62.39275391 -0.5625 62.375 C-0.57651855 60.48394531 -0.57651855 60.48394531 -0.59082031 58.5546875 C-0.63087372 53.85039722 -0.69667501 49.14675037 -0.77001953 44.44287109 C-0.79814035 42.41203108 -0.81939886 40.38108343 -0.83349609 38.35009766 C-0.85504898 35.42034145 -0.90176222 32.49186735 -0.953125 29.5625 C-0.95435364 28.66321777 -0.95558228 27.76393555 -0.95684814 26.83740234 C-1.11415568 19.97435895 -2.73872411 14.60217245 -7.3125 9.375 C-10.80055234 7.82475452 -13.88673598 7.5426259 -17.5625 8.375 C-20.54505559 10.04458275 -23.04706173 12.0709431 -25.5625 14.375 C-26.24900635 14.8687915 -26.9355127 15.36258301 -27.64282227 15.87133789 C-30.59023724 19.71538477 -30.14654339 23.41702826 -30.13671875 28.13671875 C-30.15088333 29.08311722 -30.16504791 30.02951569 -30.17964172 31.0045929 C-30.22155148 34.02401128 -30.2367885 37.04283158 -30.25 40.0625 C-30.27901341 43.09260265 -30.31349142 46.1225521 -30.35249329 49.15254211 C-30.37505955 51.03771545 -30.39083069 52.92298411 -30.39933777 54.80827332 C-30.45290788 61.26540788 -30.45290788 61.26540788 -31.5625 62.375 C-33.05988124 62.4729057 -34.56192892 62.50474864 -36.0625 62.5 C-36.8771875 62.50257813 -37.691875 62.50515625 -38.53125 62.5078125 C-40.5625 62.375 -40.5625 62.375 -41.5625 61.375 C-41.65646057 59.44193502 -41.67993517 57.50541162 -41.67602539 55.57006836 C-41.67594986 54.32885727 -41.67587433 53.08764618 -41.67579651 51.80882263 C-41.67068911 50.4441626 -41.6654731 49.07950298 -41.66015625 47.71484375 C-41.658292 46.32621817 -41.65686813 44.93759193 -41.65586853 43.54896545 C-41.65204387 39.88778885 -41.64221403 36.2266517 -41.63116455 32.56549072 C-41.62094932 28.83207737 -41.61637067 25.09865766 -41.61132812 21.36523438 C-41.60059171 14.03513823 -41.58351591 6.70507464 -41.5625 -0.625 C-38.2625 -0.625 -34.9625 -0.625 -31.5625 -0.625 C-31.2325 2.015 -30.9025 4.655 -30.5625 7.375 C-30.04300781 6.89289063 -29.52351562 6.41078125 -28.98828125 5.9140625 C-27.94220703 4.96660156 -27.94220703 4.96660156 -26.875 4 C-26.19050781 3.37351563 -25.50601563 2.74703125 -24.80078125 2.1015625 C-17.97414739 -3.16435751 -7.70392951 -3.51407311 0 0 Z " fill="#060606" transform="translate(887.5625,149.625)"/>
<path d="M0 0 C6.58319975 5.01577124 10.18626582 9.74702295 11.625 18 C11.88341958 21.46071162 11.88262141 24.90207932 11.85546875 28.37109375 C11.85501053 29.33402847 11.85455231 30.2969632 11.8540802 31.28907776 C11.8510765 33.3085352 11.8432472 35.32799073 11.83081055 37.34741211 C11.81241175 40.45239358 11.8103021 43.55707876 11.81054688 46.66210938 C11.80563636 48.62760677 11.79981008 50.59310213 11.79296875 52.55859375 C11.79185593 53.49078232 11.7907431 54.42297089 11.78959656 55.38340759 C11.78321671 56.23842361 11.77683685 57.09343964 11.77026367 57.97436523 C11.76454597 59.10732277 11.76454597 59.10732277 11.75871277 60.26316833 C11.625 62 11.625 62 10.625 63 C8.93891034 63.07205511 7.24999341 63.08386068 5.5625 63.0625 C4.18384766 63.04896484 4.18384766 63.04896484 2.77734375 63.03515625 C1.71193359 63.01775391 1.71193359 63.01775391 0.625 63 C0.61041748 61.73406006 0.59583496 60.46812012 0.58081055 59.16381836 C0.52263878 54.44657796 0.44540707 49.72980549 0.36254883 45.01293945 C0.32938816 42.97525655 0.30132888 40.93748376 0.27856445 38.8996582 C0.24485538 35.96266537 0.19253126 33.02648977 0.13671875 30.08984375 C0.13032883 29.18540024 0.1239389 28.28095673 0.11735535 27.34910583 C-0.03571987 20.69561025 -0.97454803 15.67478934 -5.5625 10.5625 C-9.26234956 8.50702802 -12.3050944 7.99564024 -16.375 9 C-19.35393394 10.67598824 -21.85937986 12.69577651 -24.375 15 C-25.06078125 15.48855469 -25.7465625 15.97710937 -26.453125 16.48046875 C-29.43206109 20.38578131 -28.97813013 24.22867802 -28.984375 29.015625 C-29.00091125 29.98659119 -29.01744751 30.95755737 -29.03448486 31.95794678 C-29.08302119 35.05536183 -29.10434857 38.15228573 -29.125 41.25 C-29.15315493 43.35158729 -29.18308168 45.45315164 -29.21484375 47.5546875 C-29.2887819 52.70308458 -29.33832229 57.85120808 -29.375 63 C-31.02074566 63.02688151 -32.66661413 63.04634123 -34.3125 63.0625 C-35.22902344 63.07410156 -36.14554688 63.08570313 -37.08984375 63.09765625 C-39.375 63 -39.375 63 -40.375 62 C-40.46896057 60.06693502 -40.49243517 58.13041162 -40.48852539 56.19506836 C-40.48844986 54.95385727 -40.48837433 53.71264618 -40.48829651 52.43382263 C-40.48318911 51.0691626 -40.4779731 49.70450298 -40.47265625 48.33984375 C-40.470792 46.95121817 -40.46936813 45.56259193 -40.46836853 44.17396545 C-40.46454387 40.51278885 -40.45471403 36.8516517 -40.44366455 33.19049072 C-40.43344932 29.45707737 -40.42887067 25.72365766 -40.42382812 21.99023438 C-40.41309171 14.66013823 -40.39601591 7.33007464 -40.375 0 C-37.075 0 -33.775 0 -30.375 0 C-30.045 2.64 -29.715 5.28 -29.375 8 C-28.93929687 7.60167969 -28.50359375 7.20335937 -28.0546875 6.79296875 C-19.56152798 -0.7626342 -11.30228724 -3.34882585 0 0 Z " fill="#060606" transform="translate(740.375,149)"/>
<path d="M0 0 C3.63 0 7.26 0 11 0 C11.01458252 1.26593994 11.02916504 2.53187988 11.04418945 3.83618164 C11.10236122 8.55342204 11.17959293 13.27019451 11.26245117 17.98706055 C11.29561184 20.02474345 11.32367112 22.06251624 11.34643555 24.1003418 C11.38014462 27.03733463 11.43246874 29.97351023 11.48828125 32.91015625 C11.49467117 33.81459976 11.5010611 34.71904327 11.50764465 35.65089417 C11.66095173 42.31446759 12.57545517 47.37340977 17.25 52.4375 C20.90863372 54.51626916 22.83442385 54.63542687 27 54 C29.92388429 52.64108997 32.47725184 51.00335884 35 49 C35.85150635 48.35095703 36.7030127 47.70191406 37.58032227 47.03320312 C41.01634045 42.72595966 40.72955359 39.25087057 40.70703125 33.88671875 C40.72215256 32.91716751 40.73727386 31.94761627 40.75285339 30.94868469 C40.79573491 27.86138663 40.80456899 24.77506622 40.8125 21.6875 C40.8356439 19.59046879 40.86100901 17.49346084 40.88867188 15.39648438 C40.95152905 10.26423647 40.98386075 5.13259887 41 0 C42.64574566 -0.02688151 44.29161413 -0.04634123 45.9375 -0.0625 C47.31228516 -0.07990234 47.31228516 -0.07990234 48.71484375 -0.09765625 C51 0 51 0 52 1 C52.09915795 2.89698849 52.12799314 4.79768787 52.12939453 6.69726562 C52.13254669 7.91522827 52.13569885 9.13319092 52.13894653 10.38806152 C52.13715675 11.72745805 52.1351058 13.06685424 52.1328125 14.40625 C52.1334856 15.7700604 52.13445567 17.13387068 52.13571167 18.49768066 C52.13718838 21.35930521 52.13503497 24.2208986 52.13037109 27.08251953 C52.12467381 30.75818614 52.12795296 34.43377974 52.13394356 38.10944366 C52.13754991 40.92662104 52.13641025 43.74378098 52.13381577 46.56095886 C52.1331467 47.91660063 52.13397421 49.27224396 52.13629532 50.62788391 C52.13882301 52.51950044 52.13429014 54.41112249 52.12939453 56.30273438 C52.12859894 57.38115601 52.12780334 58.45957764 52.12698364 59.57067871 C52 62 52 62 51 63 C49.48071962 63.07179964 47.95832518 63.08392007 46.4375 63.0625 C45.61121094 63.05347656 44.78492188 63.04445312 43.93359375 63.03515625 C43.29550781 63.02355469 42.65742187 63.01195312 42 63 C41.505 59.04 41.505 59.04 41 55 C40.57589844 55.39832031 40.15179687 55.79664063 39.71484375 56.20703125 C32.86425297 62.39514732 27.07573377 64.56610317 17.80078125 64.27734375 C11.63642126 63.66692596 8.37008241 60.70736399 4.39453125 56.3046875 C0.17582744 49.33259998 -0.42475614 42.25980219 -0.29296875 34.27734375 C-0.28872391 33.29125626 -0.28447906 32.30516876 -0.28010559 31.28919983 C-0.26345171 28.17167651 -0.2258248 25.0548245 -0.1875 21.9375 C-0.17243597 19.81055628 -0.15875059 17.68360232 -0.14648438 15.55664062 C-0.11359182 10.37083918 -0.0619026 5.185533 0 0 Z " fill="#050505" transform="translate(628,149)"/>
<path d="M0 0 C4.73202546 3.38001818 7.89899324 7.32876496 9.625 12.875 C9.84085274 15.69229872 9.95841551 18.37374813 9.9375 21.1875 C9.93121582 22.32590332 9.93121582 22.32590332 9.92480469 23.48730469 C9.77007285 31.12842361 8.33285508 37.32569645 2.625 42.875 C-2.8454574 46.04786529 -8.10069119 46.923986 -14.375 45.875 C-19.44734 43.79294152 -23.17781892 41.00175585 -25.375 35.875 C-29.01208888 26.4951392 -28.30986645 16.06198433 -24.375 6.875 C-18.92939253 -1.95063969 -9.32307597 -3.10769199 0 0 Z " fill="#FBFBFB" transform="translate(591.375,158.125)"/>
<path d="M0 0 C0.66 0.33 1.32 0.66 2 1 C2.10018279 5.07088917 2.17207471 9.14128401 2.21972656 13.21313477 C2.2396267 14.593145 2.2667574 15.97307337 2.30175781 17.3527832 C2.56506834 28.01298735 2.03299781 37.63381848 -5.1875 46 C-5.7959375 46.63421875 -6.404375 47.2684375 -7.03125 47.921875 C-9.24261502 50.25609363 -11.19669654 52.72543039 -13.1875 55.25 C-17.17298228 60.17000916 -21.47429692 64.62809238 -26.0144043 69.02832031 C-28.31657878 71.26638745 -30.20950464 73.31425696 -32 76 C-37.61 75.34 -43.22 74.68 -49 74 C-47.57561396 71.15122792 -46.21677977 68.7066792 -44.4609375 66.09375 C-43.967146 65.35624512 -43.47335449 64.61874023 -42.96459961 63.85888672 C-42.44003174 63.0804541 -41.91546387 62.30202148 -41.375 61.5 C-40.27990959 59.8672132 -39.18485752 58.23440069 -38.08984375 56.6015625 C-37.29102783 55.41288574 -37.29102783 55.41288574 -36.47607422 54.20019531 C-34.61910566 51.43224945 -32.77843629 48.65362734 -30.9375 45.875 C-27.37107536 40.52165573 -23.72422444 35.22562004 -20.07275391 29.93017578 C-15.98491467 23.99520724 -11.98067016 18.00733995 -8 12 C-6.50136178 9.74909131 -5.00069206 7.49953973 -3.5 5.25 C-2.49453125 3.74179688 -2.49453125 3.74179688 -1.46875 2.203125 C-0.9840625 1.47609375 -0.499375 0.7490625 0 0 Z " fill="#139EA6" transform="translate(207,125)"/>
<path d="M0 0 C5.3 3.3 5.3 3.3 7 5 C7.23728814 11.52542373 7.23728814 11.52542373 6 14 C3.10770619 13.53723299 0.93467387 12.46021184 -1.5625 11 C-6.8251927 7.9380697 -11.02976489 7.41138527 -17 8 C-22.15898764 10.2430381 -24.80985357 13.93817604 -27 19 C-27.41490778 22.4063007 -27.32435702 25.82094906 -27.3125 29.25 C-27.32861328 30.16652344 -27.34472656 31.08304688 -27.36132812 32.02734375 C-27.36562349 38.04944136 -26.57085451 42.53309937 -24 48 C-19.82386731 52.07172937 -16.18280881 53.40269175 -10.32421875 53.359375 C-5.78665713 52.65776883 -1.95723908 50.22089948 2 48 C3.32969548 47.32610671 4.66179199 46.65682687 6 46 C7 47 7 47 7.3125 50.8125 C7.24699086 53.63947116 7.12805807 54.79045043 5.625 57.25 C-2.76155488 62.84103659 -11.00090786 64.17986904 -21 63 C-27.29894329 61.15664727 -32.06441097 57.32285256 -35.37890625 51.6328125 C-41.13884337 40.57242042 -42.02846588 27.36625108 -38.375 15.375 C-35.22178255 7.37152099 -30.77719906 2.49320987 -22.921875 -1.125 C-15.3643465 -3.38821709 -7.29442087 -2.88503041 0 0 Z " fill="#080808" transform="translate(479,150)"/>
<path d="M0 0 C2.08314326 1.65522896 2.91129525 2.38143222 3.29296875 5.04296875 C3.1953125 7.02864583 3.09765625 9.01432292 3 11 C2.01 11.33 1.02 11.66 0 12 C-2.1640625 10.78515625 -2.1640625 10.78515625 -4.625 9.0625 C-9.64372292 5.92123238 -13.17295285 4.96914436 -19 6 C-22.81019612 6.88904576 -25.00014722 7.8153643 -27.54296875 10.828125 C-32.63588124 19.21645145 -32.13534317 29.52594392 -30.48828125 38.91796875 C-29.09312289 43.73247476 -26.97809055 46.81752756 -23 50 C-18.11736339 51.62754554 -13.39582345 52.03896551 -8.5859375 49.953125 C-7.04768769 49.07853481 -5.52463455 48.17656917 -4.01953125 47.24609375 C-1.77185349 45.85922875 0.51350848 44.88230344 3 44 C3.77741187 53.05252929 3.77741187 53.05252929 1 56.4375 C-7.85362948 61.04876536 -16.20755207 62.6521091 -26.2109375 60.53125 C-32.6759622 58.07395554 -37.56680866 53.54729304 -40.375 47.3125 C-42.82649719 41.1411223 -43.24733154 36.03689269 -43.3125 29.4375 C-43.34150391 28.48552734 -43.37050781 27.53355469 -43.40039062 26.55273438 C-43.48897174 16.54306818 -40.61256076 8.90328921 -33.73046875 1.625 C-24.98882721 -6.58385526 -9.79792344 -6.34108032 0 0 Z " fill="#060606" transform="translate(540,152)"/>
<path d="M0 0 C0.66 0 1.32 0 2 0 C3.99578981 5.67761253 5.98956591 11.3559265 7.98144531 17.03491211 C8.65992242 18.96837671 9.33895801 20.90164543 10.01855469 22.8347168 C10.99299239 25.60675059 11.96544618 28.37947327 12.9375 31.15234375 C13.24373291 32.02213364 13.54996582 32.89192352 13.86547852 33.78807068 C16 39.88612829 16 39.88612829 16 41 C6.43 41 -3.14 41 -13 41 C-11.6986313 35.14384083 -10.37203585 29.72173037 -8.3984375 24.12109375 C-8.0364476 23.07478539 -8.0364476 23.07478539 -7.66714478 22.00733948 C-6.90774274 19.81574587 -6.14151619 17.62661418 -5.375 15.4375 C-4.85370978 13.93700761 -4.33287262 12.43635774 -3.8125 10.93554688 C-2.54688478 7.28852729 -1.27515038 3.64369607 0 0 Z " fill="#F9F9F9" transform="translate(392,139)"/>
<path d="M0 0 C0.8765625 0.00644531 1.753125 0.01289063 2.65625 0.01953125 C7.77915404 0.15068994 11.61404707 0.73301229 16 3.625 C18 6.625 18 6.625 17.9375 10 C16.81901863 14.32479463 15.46675869 15.86735104 12 18.625 C5.53613589 21.8288283 -2.8137807 21.93011543 -9.65625 19.796875 C-14.6187201 17.38755981 -14.6187201 17.38755981 -16 14.625 C-16.45606848 11.30221537 -16.60834968 8.76548917 -14.99633789 5.7434082 C-10.61154432 0.04524306 -6.95428311 -0.35794104 0 0 Z " fill="#F8F8F8" transform="translate(938,207.375)"/>
<path d="M0 0 C3.8026029 2.0050088 5.61790841 3.42686262 8 7 C8.57430821 11.81822214 8.58557505 16.43846654 6.875 21 C3.51083533 24.58844231 0.35861199 25.85443443 -4.5 26.375 C-8.44109405 25.95273992 -10.72419133 25.23350591 -14 23 C-16.88419099 18.96213261 -17.63622103 15.12538992 -17.49609375 10.25390625 C-16.61580235 6.25447212 -14.02579848 3.63385567 -11 1 C-7.53081128 -0.73459436 -3.79303468 -0.47173877 0 0 Z " fill="#F9F9F9" transform="translate(942,156)"/>
<path d="M0 0 C4.25523448 3.33018351 6.59311543 6.44243984 7.4375 11.75 C6.83366235 16.23565108 4.78073875 19.46930444 2 23 C-1.21694364 24.60847182 -4.52137222 24.61309149 -8 24 C-11.27939423 21.34857488 -13.76648446 19.1284367 -14.23828125 14.828125 C-14.4108458 8.83377737 -13.98075605 5.56616135 -10 1 C-6.7789689 -0.61051555 -3.48310374 -0.60168779 0 0 Z " fill="#0A0A0A" transform="translate(256,124)"/>
<path d="M0 0 C0.33 0 0.66 0 1 0 C1.0251057 3.91030885 1.04304746 7.82058515 1.05493164 11.73095703 C1.06231093 13.6995611 1.07503058 15.66814286 1.08789062 17.63671875 C1.09111328 18.90644531 1.09433594 20.17617187 1.09765625 21.484375 C1.10289307 22.63647461 1.10812988 23.78857422 1.11352539 24.97558594 C1.04270003 30.33324227 0.48637392 35.66729307 0 41 C11.83053972 40.93888696 23.66085704 40.86185221 35.49115562 40.76428509 C40.98399779 40.71948911 46.4767642 40.68025355 51.96972656 40.65356445 C57.26720168 40.62762328 62.56438667 40.58728674 67.86168289 40.53681374 C69.88632229 40.52008262 71.91101194 40.5086074 73.93571091 40.50238609 C76.76393054 40.49281261 79.59139736 40.46483552 82.41943359 40.43237305 C83.68502357 40.43452568 83.68502357 40.43452568 84.97618103 40.4367218 C87.53823052 40.43026282 87.53823052 40.43026282 91 40 C91.66 39.01 92.32 38.02 93 37 C93.99 39.475 93.99 39.475 95 42 C63.32 42 31.64 42 -1 42 C-1 7 -1 7 0 0 Z " fill="#299CA3" transform="translate(46,87)"/>
<path d="M0 0 C2.50041894 0.08168338 3.83455801 0.19140582 6.0625 1.375 C7.64683618 4.44465135 7.42498449 6.92931143 7.0625 10.3125 C6.0625 12.25 6.0625 12.25 4.0625 13.3125 C1.26030764 13.66778819 -1.07515645 13.53967012 -3.9375 13.3125 C-5.9375 11.3125 -5.9375 11.3125 -6.203125 9.21875 C-6.19539062 8.02765625 -6.19539062 8.02765625 -6.1875 6.8125 C-6.19265625 6.0184375 -6.1978125 5.224375 -6.203125 4.40625 C-5.68008611 0.28347289 -3.9085318 0.31020094 0 0 Z " fill="#080808" transform="translate(819.9375,123.6875)"/>
<path d="M0 0 C21.78 0 43.56 0 66 0 C66 0.33 66 0.66 66 1 C45.21 1 24.42 1 3 1 C3 1.99 3 2.98 3 4 C3.66 4 4.32 4 5 4 C5.26554687 4.55429688 5.53109375 5.10859375 5.8046875 5.6796875 C6.15789062 6.40414062 6.51109375 7.12859375 6.875 7.875 C7.39707031 8.95394531 7.39707031 8.95394531 7.9296875 10.0546875 C8.96557543 12.15135019 8.96557543 12.15135019 11 14 C11.125 16.625 11.125 16.625 11 19 C7 14 7 14 0 0 Z " fill="#48A3A9" transform="translate(114,207)"/>
<path d="M0 0 C1.53970768 0.01005603 3.07942176 0.01917721 4.61914062 0.02734375 C8.35039587 0.04913532 12.08140554 0.08351858 15.8125 0.125 C17.1325 2.435 18.4525 4.745 19.8125 7.125 C19.1525 7.125 18.4925 7.125 17.8125 7.125 C17.1525 5.475 16.4925 3.825 15.8125 2.125 C5.2525 1.795 -5.3075 1.465 -16.1875 1.125 C-16.1875 1.785 -16.1875 2.445 -16.1875 3.125 C-16.86296875 3.16238281 -17.5384375 3.19976562 -18.234375 3.23828125 C-19.12640625 3.30402344 -20.0184375 3.36976562 -20.9375 3.4375 C-21.81921875 3.49550781 -22.7009375 3.55351563 -23.609375 3.61328125 C-26.54080757 4.1951262 -27.90984027 5.24387551 -30.1875 7.125 C-31.074375 7.455 -31.96125 7.785 -32.875 8.125 C-34.0196875 8.62 -34.0196875 8.62 -35.1875 9.125 C-35.5175 10.115 -35.8475 11.105 -36.1875 12.125 C-36.8475 12.125 -37.5075 12.125 -38.1875 12.125 C-37.32978981 8.3725179 -35.83568308 6.55772396 -32.75 4.4375 C-22.78080926 -1.08732913 -11.05266029 -0.12664382 0 0 Z " fill="#2E9EA5" transform="translate(87.1875,67.875)"/>
<path d="M0 0 C0.66 0.33 1.32 0.66 2 1 C2.07489276 5.10757963 2.12894754 9.2148876 2.16479492 13.32299805 C2.17975938 14.71662328 2.20013851 16.11020244 2.22631836 17.50366211 C2.37352037 25.54781889 2.16874861 32.48981629 -1 40 C-1.33 40 -1.66 40 -2 40 C-2.04254356 38.00045254 -2.04080783 35.99958364 -2 34 C-1.505 33.505 -1.505 33.505 -1 33 C-0.8415735 30.9291528 -0.74875578 28.85321971 -0.68359375 26.77734375 C-0.64169922 25.51728516 -0.59980469 24.25722656 -0.55664062 22.95898438 C-0.51682404 21.61849264 -0.47711186 20.2779978 -0.4375 18.9375 C-0.39431958 17.59308477 -0.35070544 16.2486834 -0.30664062 14.90429688 C-0.20014642 11.6029766 -0.0981354 8.30157764 0 5 C-0.66 5 -1.32 5 -2 5 C-1.34 3.35 -0.68 1.7 0 0 Z " fill="#269EA5" transform="translate(207,125)"/>
<path d="M0 0 C3.42676338 0.95187872 4.96002229 1.95581411 7.375 4.625 C9.41286526 8.85748939 9.43661502 11.57195244 8 16 C6.125 19 6.125 19 4 21 C3.01 21 2.02 21 1 21 C1.309375 20.360625 1.61875 19.72125 1.9375 19.0625 C3.32289621 15.06929916 4.2235837 11.2480903 4 7 C2.20954506 4.07139596 2.20954506 4.07139596 0 2 C0 1.34 0 0.68 0 0 Z " fill="#E1E1E1" transform="translate(252,125)"/>
<path d="M0 0 C0 0.33 0 0.66 0 1 C-7.92 1 -15.84 1 -24 1 C-24 1.66 -24 2.32 -24 3 C-24.99 3 -25.98 3 -27 3 C-26.649375 3.7425 -26.29875 4.485 -25.9375 5.25 C-24.9279902 8.21122875 -25.12019116 9.12062561 -26 12 C-26.84158536 10.73461631 -27.67299748 9.46246221 -28.5 8.1875 C-29.19609375 7.12595703 -29.19609375 7.12595703 -29.90625 6.04296875 C-31 4 -31 4 -31 1 C-22.32337684 -3.33831158 -9.37559884 -0.67042236 0 0 Z " fill="#2F9FA5" transform="translate(144,68)"/>
<path d="M0 0 C1.25029059 3.75087177 0.60020065 6.10460971 0 10 C-0.14024545 12.48656358 -0.24409812 14.97537819 -0.31640625 17.46484375 C-0.33718735 18.14301651 -0.35796844 18.82118927 -0.37937927 19.51991272 C-0.44409309 21.65901831 -0.5033909 23.79823296 -0.5625 25.9375 C-0.60575984 27.39909924 -0.64937634 28.86068797 -0.69335938 30.32226562 C-0.79969251 33.8813984 -0.9011733 37.44064997 -1 41 C-1.33 41 -1.66 41 -2 41 C-4.73262032 10.64839572 -4.73262032 10.64839572 0 0 Z " fill="#C3F1F1" transform="translate(46,84)"/>
<path d="M0 0 C-2.86362311 1.43181156 -4.75876474 0.31536568 -7.71777344 -0.47949219 C-11.49152145 -1.34017156 -15.26779951 -1.46889071 -19.125 -1.625 C-19.89714844 -1.66367188 -20.66929687 -1.70234375 -21.46484375 -1.7421875 C-25.64657345 -1.94165672 -29.81249657 -2.04013582 -34 -2 C-33.67 -2.66 -33.34 -3.32 -33 -4 C-23.23249857 -7.15080691 -8.39067136 -5.660989 0 0 Z " fill="#D2F4F4" transform="translate(154,70)"/>
<path d="M0 0 C3.85856124 0.96464031 4.95796599 1.94092518 7.3125 5.25 C9.04818859 8.70003674 9.71454138 11.10971916 9 15 C7.59242596 17.86189408 6.05146555 20.55067446 4 23 C3.34 23 2.68 23 2 23 C2.433125 22.195625 2.433125 22.195625 2.875 21.375 C5.27281845 16.31293883 6.75936187 12.51266718 5 7 C2.52093031 4.2704415 2.52093031 4.2704415 0 2 C0 1.34 0 0.68 0 0 Z " fill="#212121" transform="translate(254,124)"/>
<path d="M0 0 C3.22922874 3.89734503 6.06198611 7.94878536 8.8125 12.1875 C9.23208984 12.81591797 9.65167969 13.44433594 10.08398438 14.09179688 C11.12021167 15.68796248 12.06831799 17.34063859 13 19 C12.67 19.66 12.34 20.32 12 21 C10.33333333 19.33333333 8.66666667 17.66666667 7 16 C6.4225 15.505 5.845 15.01 5.25 14.5 C4 13 4 13 3.5625 10.5625 C3.2079414 7.8224566 3.2079414 7.8224566 0.875 5.9375 C0.25625 5.298125 -0.3625 4.65875 -1 4 C-0.75 1.75 -0.75 1.75 0 0 Z " fill="#259FA5" transform="translate(109,78)"/>
<path d="M0 0 C1 3 1 3 -0.25 6 C-1.73230274 8.54109041 -2.97659451 9.97659451 -5 12 C-5.28875 12.763125 -5.5775 13.52625 -5.875 14.3125 C-7.35603183 17.85052048 -9.4640244 20.13034339 -12 23 C-12.66 22.67 -13.32 22.34 -14 22 C-13.68248779 21.51120361 -13.36497559 21.02240723 -13.0378418 20.51879883 C-11.58683868 18.28394176 -10.13715915 16.04822906 -8.6875 13.8125 C-8.18798828 13.04357422 -7.68847656 12.27464844 -7.17382812 11.48242188 C-4.71697522 7.69138395 -2.28795839 3.89655712 0 0 Z " fill="#D7F7F8" transform="translate(186,139)"/>
<path d="M0 0 C0.66 0.33 1.32 0.66 2 1 C2 10.9 2 20.8 2 31 C1.67 31 1.34 31 1 31 C1 22.42 1 13.84 1 5 C0.01 5 -0.98 5 -2 5 C-1.34 3.35 -0.68 1.7 0 0 Z " fill="#42A1A8" transform="translate(207,125)"/>
<path d="M0 0 C0.33 0 0.66 0 1 0 C1.33 3.3 1.66 6.6 2 10 C2.66 10 3.32 10 4 10 C3.67 11.98 3.34 13.96 3 16 C2.34 15.34 1.68 14.68 1 14 C0.01 14.99 -0.98 15.98 -2 17 C-2.66 16.67 -3.32 16.34 -4 16 C-3.2884375 15.1028125 -3.2884375 15.1028125 -2.5625 14.1875 C-0.31369498 9.59993775 -0.256466 5.04972703 0 0 Z " fill="#D0EFF0" transform="translate(201,244)"/>
<path d="M0 0 C2.87789737 2.74008257 4.5721789 5.24257606 6 9 C5.19654548 12.21381808 4.34058581 13.65941419 2 16 C1.61866701 14.0085944 1.28674418 12.00720923 1 10 C1.33 9.67 1.66 9.34 2 9 C1.74804092 7.46797294 1.42403223 5.94742872 1.0625 4.4375 C0.86785156 3.61121094 0.67320312 2.78492187 0.47265625 1.93359375 C0.31667969 1.29550781 0.16070312 0.65742187 0 0 Z " fill="#2FA1A5" transform="translate(197,102)"/>
<path d="M0 0 C1.98 0.99 1.98 0.99 4 2 C5.32 2 6.64 2 8 2 C7.45276317 5.37462715 6.9451 7.08235 5 10 C3.35 6.7 1.7 3.4 0 0 Z " fill="#20A0A7" transform="translate(151,128)"/>
<path d="M0 0 C0.68707555 2.49064888 1 4.37886292 1 7 C-2.00586708 10.52115858 -4.57299578 12.60865582 -9 14 C-8.60167969 13.49210938 -8.20335937 12.98421875 -7.79296875 12.4609375 C-4.71433825 8.46096502 -2.08404386 4.63120857 0 0 Z " fill="#D8F7F8" transform="translate(206,162)"/>
<path d="M0 0 C-0.969375 0.45375 -1.93875 0.9075 -2.9375 1.375 C-6.07079582 2.65786221 -6.07079582 2.65786221 -7 5 C-7.66 5.144375 -8.32 5.28875 -9 5.4375 C-9.66 5.623125 -10.32 5.80875 -11 6 C-11.33 6.99 -11.66 7.98 -12 9 C-12.66 9 -13.32 9 -14 9 C-12.87028571 4.05749997 -10.11636997 2.38948207 -6.0703125 -0.1796875 C-3.59901215 -1.15888198 -2.4574558 -0.89261848 0 0 Z " fill="#36A3AA" transform="translate(63,71)"/>
<path d="M0 0 C3.21524305 1.40844718 5.32183868 3.10344786 7.75 5.625 C8.67039062 6.57246094 8.67039062 6.57246094 9.609375 7.5390625 C10.29773438 8.26222656 10.29773438 8.26222656 11 9 C10.01 9 9.02 9 8 9 C6.33333333 7.33333333 4.66666667 5.66666667 3 4 C0.82653432 3.13880866 0.82653432 3.13880866 -1 3 C-1.33 3.99 -1.66 4.98 -2 6 C-2.33 5.34 -2.66 4.68 -3 4 C-2.01 2.68 -1.02 1.36 0 0 Z " fill="#34A1A3" transform="translate(81,178)"/>
<path d="M0 0 C0.99 0 1.98 0 3 0 C3.26554687 0.55429688 3.53109375 1.10859375 3.8046875 1.6796875 C4.15789062 2.40414062 4.51109375 3.12859375 4.875 3.875 C5.22304687 4.59429687 5.57109375 5.31359375 5.9296875 6.0546875 C6.96557543 8.15135019 6.96557543 8.15135019 9 10 C9.125 12.625 9.125 12.625 9 15 C4.95808535 10.50898372 2.56325559 5.41015011 0 0 Z " fill="#30A1A7" transform="translate(116,211)"/>
<path d="M0 0 C0.6484375 1.80859375 0.6484375 1.80859375 1 4 C-0.5954349 6.05727132 -2.26526288 8.05874656 -4 10 C-4.33 10.99 -4.66 11.98 -5 13 C-5.99 13.33 -6.98 13.66 -8 14 C-6.6744419 10.37723685 -5.05653045 7.36494652 -2.875 4.1875 C-2.33617187 3.39730469 -1.79734375 2.60710937 -1.2421875 1.79296875 C-0.83226562 1.20128906 -0.42234375 0.60960937 0 0 Z " fill="#34A3A9" transform="translate(57,214)"/>
<path d="M0 0 C0.33 0 0.66 0 1 0 C1.66131596 5.2905277 0.04553852 8.15696618 -2.7109375 12.4609375 C-3.13632812 12.96882812 -3.56171875 13.47671875 -4 14 C-4.66 14 -5.32 14 -6 14 C-5.71125 13.46375 -5.4225 12.9275 -5.125 12.375 C-3.9128851 9.93920759 -3.9128851 9.93920759 -3 7 C-2.1686076 4.5058228 -1.24218059 2.30690682 0 0 Z " fill="#434343" transform="translate(262,133)"/>
<path d="M0 0 C1.32 0 2.64 0 4 0 C4 0.99 4 1.98 4 3 C5.32 3.66 6.64 4.32 8 5 C8 5.66 8 6.32 8 7 C4.84859577 6.65930765 3.39218439 6.41923159 1.1875 4.0625 C0 2 0 2 0 0 Z " fill="#25A1AF" transform="translate(152,258)"/>
<path d="M0 0 C0.99 0 1.98 0 3 0 C1.68775452 3.93673644 0.08089673 6.22719294 -3 9 C-3.75 7.3125 -3.75 7.3125 -4 5 C-2.25 2.25 -2.25 2.25 0 0 Z " fill="#259EA8" transform="translate(62,188)"/>
<path d="M0 0 C1 3 1 3 -0.1875 5.9375 C-1.88069631 8.7984179 -3.53876547 10.79337594 -6 13 C-6.66 12.67 -7.32 12.34 -8 12 C-5.36 8.04 -2.72 4.08 0 0 Z " fill="#38A3AB" transform="translate(190,150)"/>
<path d="M0 0 C2.95749791 3.46741134 5.07848152 6.86873527 7 11 C5 11 5 11 2.4375 8.625 C0 6 0 6 -1 4 C-0.5625 1.875 -0.5625 1.875 0 0 Z " fill="#38A4AB" transform="translate(109,78)"/>
<path d="M0 0 C1.32 0.66 2.64 1.32 4 2 C0.71195019 4.91227269 -1.59885603 6.49701212 -6 7 C-5 4 -5 4 -3 2.9375 C-2.34 2.628125 -1.68 2.31875 -1 2 C-0.67 1.34 -0.34 0.68 0 0 Z " fill="#2FA2A9" transform="translate(86,264)"/>
<path d="M0 0 C0.33 0.66 0.66 1.32 1 2 C0.07137808 4.03412421 -0.93753473 6.03247172 -2 8 C-2.33 8.763125 -2.66 9.52625 -3 10.3125 C-4 12 -4 12 -7 13 C-5.35821735 8.22390502 -2.73453298 4.20617096 0 0 Z " fill="#D5F8FA" transform="translate(202,113)"/>
<path d="M0 0 C0.33 0.99 0.66 1.98 1 3 C-0.6875 4.5625 -0.6875 4.5625 -3 6 C-5.6875 5.8125 -5.6875 5.8125 -8 5 C-8.33 4.34 -8.66 3.68 -9 3 C-7.88625 3.061875 -6.7725 3.12375 -5.625 3.1875 C-4.42875 3.125625 -3.2325 3.06375 -2 3 C-1.34 2.01 -0.68 1.02 0 0 Z " fill="#CEF1F4" transform="translate(177,197)"/>
<path d="M0 0 C2.91488977 2.6234008 4.88503898 5.71816394 7 9 C6.67 9.66 6.34 10.32 6 11 C5.34 9.68 4.68 8.36 4 7 C3.01 7 2.02 7 1 7 C0.67 4.69 0.34 2.38 0 0 Z " fill="#35A0A9" transform="translate(129,110)"/>
<path d="M0 0 C0 2.31 0 4.62 0 7 C-1.32 6.34 -2.64 5.68 -4 5 C-4 4.01 -4 3.02 -4 2 C-1 0 -1 0 0 0 Z " fill="#25A1AB" transform="translate(58,260)"/>
<path d="M0 0 C1 4 1 4 1 7 C-0.98 7.66 -2.96 8.32 -5 9 C-3.35 6.03 -1.7 3.06 0 0 Z " fill="#2D9FA3" transform="translate(196,141)"/>
<path d="M0 0 C1.65 0 3.3 0 5 0 C3.02 2.97 3.02 2.97 1 6 C0.34 5.34 -0.32 4.68 -1 4 C-0.625 1.875 -0.625 1.875 0 0 Z " fill="#2AA2A9" transform="translate(91,144)"/>
<path d="M0 0 C2.91517292 1.07401108 4.77810176 1.77810176 7 4 C6.67 4.99 6.34 5.98 6 7 C1.125 2.25 1.125 2.25 0 0 Z " fill="#36A2AA" transform="translate(141,250)"/>
<path d="M0 0 C0.33 0.66 0.66 1.32 1 2 C1.66 2 2.32 2 3 2 C1.70700306 4.88437779 0.34058637 6.87219421 -2 9 C-2 7.68 -2 6.36 -2 5 C-1.34 5 -0.68 5 0 5 C-0.33 4.01 -0.66 3.02 -1 2 C-0.67 1.34 -0.34 0.68 0 0 Z " fill="#2EA1AA" transform="translate(197,169)"/>
<path d="M0 0 C0.99 0.33 1.98 0.66 3 1 C1.02 3.97 1.02 3.97 -1 7 C-1.625 5.1875 -1.625 5.1875 -2 3 C-1.34 2.01 -0.68 1.02 0 0 Z " fill="#34A2AD" transform="translate(68,180)"/>
<path d="M0 0 C0.66 0.33 1.32 0.66 2 1 C2 3.31 2 5.62 2 8 C1.67 7.01 1.34 6.02 1 5 C0.01 5 -0.98 5 -2 5 C-1.34 3.35 -0.68 1.7 0 0 Z " fill="#54A7AF" transform="translate(207,125)"/>
<path d="M0 0 C-2.97 1.65 -5.94 3.3 -9 5 C-8.67 3.68 -8.34 2.36 -8 1 C-4.70594381 -0.82039948 -3.63772813 -1.21257604 0 0 Z " fill="#DDFBFB" transform="translate(59,71)"/>
</svg>
